<svg width="197" height="107" viewBox="0 0 197 107" fill="none" xmlns="http://www.w3.org/2000/svg">
<path d="M196.36 64.6202V6.95544C196.354 5.10875 195.617 3.33967 194.309 2.0359C193.001 0.732123 191.23 2.50049e-05 189.383 3.39659e-05H6.97713C6.0619 -0.00282613 5.15511 0.174966 4.30873 0.523228C3.46235 0.871489 2.69306 1.38337 2.04488 2.02953C1.39671 2.67568 0.882419 3.44341 0.531518 4.2887C0.180618 5.13398 -4.46882e-06 6.04021 0 6.95544V62.4031C-4.46882e-06 63.3183 0.180618 64.2246 0.531518 65.0699C0.882419 65.9152 1.39671 66.6829 2.04488 67.3291C2.69306 67.9752 3.46235 68.4871 4.30873 68.8353C5.15511 69.1836 6.0619 69.3614 6.97713 69.3586C8.3737 69.3499 9.74095 69.7592 10.903 70.5339C12.065 71.3085 12.9687 72.4132 13.4978 73.7057C16.0844 79.9873 19.8446 92.1158 16.2148 103.375C11.7372 117.199 39.5155 82.726 47.4924 72.6406C48.1548 71.8089 48.9985 71.1395 49.9591 70.6837C50.9197 70.2279 51.9718 69.9977 53.035 70.0106L189.361 71.5973C191.214 71.5973 192.99 70.8629 194.302 69.5551C195.614 68.2472 196.354 66.4726 196.36 64.6202Z" fill="#631E4D"/>
<path d="M54.0036 39.0627C54.1472 36.1371 51.7851 33.6439 48.7277 33.4938C45.6703 33.3438 43.0753 35.5937 42.9318 38.5192C42.7882 41.4448 45.1503 43.938 48.2077 44.0881C51.2651 44.2381 53.86 41.9882 54.0036 39.0627Z" fill="white"/>
<path d="M29.1579 39.0552C29.3015 36.1297 26.9394 33.6364 23.882 33.4863C20.8246 33.3363 18.2297 35.5862 18.0861 38.5117C17.9425 41.4373 20.3046 43.9305 23.362 44.0806C26.4194 44.2307 29.0143 41.9807 29.1579 39.0552Z" fill="white"/>
<path d="M78.8698 39.0712C79.0134 36.1457 76.6513 33.6524 73.5939 33.5023C70.5364 33.3523 67.9415 35.6022 67.7979 38.5277C67.6543 41.4533 70.0164 43.9465 73.0739 44.0966C76.1313 44.2467 78.7262 41.9967 78.8698 39.0712Z" fill="white"/>
<path d="M103.716 39.0573C103.859 36.1318 101.497 33.6385 98.4398 33.4884C95.3823 33.3384 92.7874 35.5883 92.6438 38.5138C92.5002 41.4394 94.8623 43.9326 97.9198 44.0827C100.977 44.2328 103.572 41.9828 103.716 39.0573Z" fill="white"/>
<path d="M128.56 39.0658C128.704 36.1403 126.342 33.6471 123.284 33.497C120.227 33.3469 117.632 35.5968 117.489 38.5224C117.345 41.4479 119.707 43.9411 122.764 44.0912C125.822 44.2413 128.417 41.9913 128.56 39.0658Z" fill="white"/>
<path d="M153.393 39.3942C153.714 36.4828 151.507 33.8507 148.465 33.5153C145.422 33.18 142.695 35.2683 142.374 38.1797C142.054 41.0911 144.26 43.7231 147.303 44.0584C150.345 44.3938 153.072 42.3056 153.393 39.3942Z" fill="white"/>
<path d="M178.242 39.392C178.563 36.4806 176.356 33.8486 173.314 33.5132C170.271 33.1778 167.544 35.2661 167.223 38.1775C166.902 41.0889 169.109 43.721 172.151 44.0564C175.194 44.3917 177.921 42.3034 178.242 39.392Z" fill="white"/>
</svg>
