<svg width="500" height="566" viewBox="0 0 500 566" fill="none" xmlns="http://www.w3.org/2000/svg">
<path fill-rule="evenodd" clip-rule="evenodd" d="M441.213 415.753C440.877 418.472 440.374 421.168 439.704 423.825C437.49 432.896 434.308 441.702 430.214 450.093C427.483 456.128 424.812 461.107 420.98 468.455L416.167 477.81C409.317 490.921 402.829 503.263 395.828 516.42L393.52 520.72C391.664 524.175 389.431 528.264 387.666 531.568C385.704 535.098 384.211 537.769 383.984 538.041C385.222 535.476 388.239 529.44 391.257 523.601C396.281 513.794 403.327 500.245 408.336 490.815C412.138 483.573 416.001 476.256 419.697 469.225C423.394 462.194 427.241 455.042 430.515 447.981C432.916 442.978 435.061 437.857 436.943 432.636C438.886 427.153 440.315 421.501 441.213 415.753Z" fill="black"/>
<path fill-rule="evenodd" clip-rule="evenodd" d="M433.609 436.016C433.587 435.659 433.587 435.301 433.609 434.944C433.529 433.725 433.264 432.524 432.824 431.384C432.628 431.007 432.462 430.644 432.251 430.297C432.036 429.905 431.68 429.608 431.255 429.468C431.056 429.437 430.852 429.461 430.666 429.539C430.479 429.616 430.318 429.743 430.199 429.905C429.903 430.228 429.681 430.611 429.548 431.027C429.415 431.444 429.375 431.885 429.429 432.319C429.616 433.195 430.108 433.976 430.817 434.522L431.315 434.884C431.759 435.159 432.218 435.411 432.688 435.638C433.003 435.767 433.282 435.969 433.503 436.227C432.786 436.115 432.093 435.885 431.451 435.548C430.673 435.182 429.998 434.627 429.49 433.934C428.957 433.22 428.73 432.325 428.856 431.444C428.961 430.865 429.198 430.317 429.55 429.845C429.714 429.57 429.949 429.345 430.23 429.193C430.512 429.042 430.83 428.97 431.149 428.985C431.466 429.03 431.768 429.149 432.03 429.333C432.292 429.516 432.507 429.759 432.658 430.041C432.939 430.517 433.167 431.023 433.337 431.55C433.57 432.263 433.712 433.003 433.759 433.753C433.834 434.51 433.783 435.275 433.609 436.016Z" fill="black"/>
<path fill-rule="evenodd" clip-rule="evenodd" d="M438.18 433.104C438.482 433.346 438.889 433.21 439.236 433.104C440.378 432.743 441.468 432.236 442.48 431.595C443.099 431.037 443.823 430.705 444.245 429.8C444.316 429.613 444.343 429.413 444.325 429.214C444.307 429.016 444.243 428.824 444.14 428.653C443.702 427.989 442.631 428.231 441.922 428.653C441.125 429.045 440.44 429.631 439.93 430.358C439.808 430.516 439.697 430.682 439.598 430.856C439.355 431.294 439.168 431.76 439.04 432.244C438.967 432.561 438.85 432.865 438.693 433.149C438.62 432.859 438.595 432.558 438.618 432.259C438.672 431.842 438.773 431.432 438.919 431.037C439.222 430.249 439.702 429.542 440.322 428.97C440.944 428.39 441.702 427.975 442.525 427.763C442.827 427.668 443.147 427.646 443.459 427.699C443.771 427.751 444.067 427.877 444.321 428.065C444.554 428.29 444.719 428.577 444.797 428.892C444.874 429.207 444.861 429.537 444.758 429.845C444.3 430.864 443.506 431.694 442.51 432.199C441.864 432.557 441.174 432.831 440.458 433.014C440.088 433.128 439.71 433.214 439.327 433.27C439.131 433.27 438.95 433.27 438.753 433.27C438.652 433.296 438.545 433.294 438.444 433.265C438.343 433.236 438.252 433.181 438.18 433.104Z" fill="black"/>
<path fill-rule="evenodd" clip-rule="evenodd" d="M440.745 414.516C440.819 414.152 440.875 413.784 440.911 413.414C440.932 412.789 440.82 412.167 440.58 411.589C440.341 411.011 439.98 410.491 439.523 410.065C439.174 409.78 438.77 409.569 438.337 409.445C437.904 409.32 437.45 409.285 437.003 409.341C436.56 409.432 436.152 409.646 435.826 409.959C435.473 410.242 435.213 410.626 435.081 411.059C434.949 411.493 434.951 411.956 435.087 412.388C435.465 413.259 436.102 413.991 436.913 414.486L437.456 414.802C437.929 415.058 438.437 415.241 438.965 415.346C439.478 415.481 439.885 415.557 439.93 415.662C439.187 415.761 438.431 415.656 437.742 415.361C436.925 415.048 436.184 414.565 435.57 413.942C435.239 413.64 434.975 413.272 434.796 412.861C434.617 412.45 434.526 412.007 434.529 411.559C434.588 410.954 434.836 410.382 435.236 409.925C435.636 409.468 436.17 409.147 436.762 409.009C437.334 408.904 437.922 408.944 438.475 409.123C439.028 409.302 439.528 409.615 439.93 410.035C440.467 410.624 440.819 411.359 440.941 412.147C441.067 412.941 440.999 413.753 440.745 414.516Z" fill="black"/>
<path fill-rule="evenodd" clip-rule="evenodd" d="M440.911 414.38C441.119 414.394 441.324 414.445 441.514 414.531C441.862 414.628 442.189 414.786 442.48 414.998C442.633 415.124 442.75 415.288 442.819 415.473C442.888 415.659 442.906 415.86 442.872 416.055C442.872 416.643 442.39 416.99 441.801 417.292C441.546 417.441 441.264 417.538 440.971 417.578C440.652 417.627 440.326 417.59 440.026 417.471C439.727 417.352 439.464 417.154 439.266 416.9C439.062 416.638 438.942 416.32 438.923 415.988C438.904 415.656 438.987 415.327 439.161 415.044C439.272 414.934 439.399 414.843 439.538 414.772C439.816 414.574 440.136 414.445 440.473 414.395C440.669 414.33 440.881 414.33 441.077 414.395C440.7 414.532 440.332 414.693 439.975 414.878C439.801 414.977 439.662 415.127 439.576 415.307C439.489 415.488 439.46 415.691 439.493 415.889C439.521 416.077 439.589 416.257 439.69 416.417C439.791 416.578 439.924 416.717 440.081 416.824C440.317 416.935 440.575 416.992 440.835 416.992C441.096 416.992 441.354 416.935 441.59 416.824C442.088 416.628 442.54 416.221 442.556 415.828C442.567 415.656 442.536 415.483 442.465 415.325C442.394 415.167 442.285 415.029 442.148 414.923C441.773 414.667 441.353 414.483 440.911 414.38Z" fill="black"/>
<path fill-rule="evenodd" clip-rule="evenodd" d="M442.239 416.386C442.576 416.283 442.919 416.198 443.265 416.13C444.374 415.704 445.396 415.08 446.282 414.289C446.914 413.748 447.375 413.035 447.61 412.237C447.625 412.046 447.593 411.854 447.517 411.678C447.441 411.501 447.322 411.346 447.173 411.226C446.829 410.988 446.434 410.834 446.02 410.777C445.606 410.719 445.184 410.759 444.789 410.894C443.927 411.086 443.115 411.456 442.405 411.981L441.937 412.358C441.573 412.657 441.289 413.04 441.107 413.475C440.995 413.752 440.953 414.052 440.987 414.35C440.874 414.239 440.79 414.104 440.74 413.954C440.69 413.805 440.676 413.645 440.7 413.49C440.766 413.049 440.954 412.636 441.243 412.298C441.781 411.666 442.444 411.153 443.189 410.789C443.927 410.428 444.725 410.208 445.543 410.14C446.141 410.092 446.74 410.223 447.263 410.517C447.539 410.68 447.767 410.912 447.926 411.189C448.085 411.467 448.168 411.782 448.168 412.102C448.124 412.692 447.892 413.253 447.505 413.701C447.17 414.109 446.79 414.478 446.373 414.802C445.788 415.244 445.143 415.599 444.457 415.858C443.744 416.132 442.998 416.31 442.239 416.386Z" fill="black"/>
<path fill-rule="evenodd" clip-rule="evenodd" d="M441.997 416.402C441.979 416.71 441.902 417.012 441.771 417.292C441.453 418.333 440.814 419.246 439.945 419.902C439.33 420.444 438.569 420.795 437.758 420.913C437.336 421.011 436.897 421.011 436.475 420.913C436.243 420.846 436.027 420.732 435.84 420.579C435.654 420.426 435.5 420.237 435.389 420.023C435.188 419.609 435.085 419.155 435.087 418.695C435.092 418.239 435.19 417.788 435.374 417.371C435.558 416.953 435.825 416.577 436.158 416.266C436.307 416.13 436.469 416.008 436.641 415.904C437.097 415.625 437.616 415.464 438.15 415.436C438.305 415.417 438.463 415.433 438.612 415.482C438.761 415.532 438.897 415.614 439.01 415.723C438.427 415.78 437.857 415.928 437.32 416.16C436.744 416.448 436.282 416.922 436.008 417.505C435.735 418.088 435.665 418.747 435.811 419.374C435.92 419.744 436.168 420.059 436.502 420.252C436.836 420.446 437.231 420.504 437.607 420.415C438.441 420.3 439.228 419.961 439.885 419.434C440.381 419.088 440.819 418.666 441.183 418.182C441.565 417.646 441.841 417.041 441.997 416.402Z" fill="black"/>
<path fill-rule="evenodd" clip-rule="evenodd" d="M442.239 415.964C442.543 415.903 442.855 415.903 443.159 415.964C443.694 415.942 444.227 416.039 444.72 416.248C445.214 416.456 445.654 416.772 446.011 417.171C446.295 417.462 446.514 417.811 446.652 418.193C446.79 418.576 446.844 418.984 446.81 419.389C446.801 419.829 446.671 420.257 446.433 420.627C446.174 421.02 445.807 421.332 445.377 421.524C444.947 421.717 444.47 421.782 444.004 421.713C443.56 421.588 443.147 421.37 442.793 421.073C442.44 420.777 442.153 420.409 441.952 419.993C441.877 419.827 441.786 419.661 441.711 419.465C441.527 419.013 441.42 418.534 441.394 418.047C441.394 417.564 441.545 417.217 441.65 417.187C441.764 417.761 441.92 418.326 442.118 418.876C442.358 419.475 442.724 420.015 443.189 420.461C443.382 420.66 443.619 420.809 443.882 420.896C444.145 420.983 444.425 421.004 444.698 420.959C445.068 420.879 445.408 420.695 445.676 420.427C445.943 420.159 446.128 419.82 446.207 419.45C446.262 419.067 446.233 418.677 446.121 418.306C446.009 417.936 445.817 417.595 445.558 417.307C445.154 416.845 444.641 416.492 444.064 416.281C443.481 416.062 442.862 415.954 442.239 415.964Z" fill="black"/>
<path fill-rule="evenodd" clip-rule="evenodd" d="M73.7161 392.337L71.9659 402.038C70.1549 413.088 69.0312 424.239 68.6013 435.428C68.3495 443.634 68.6115 451.848 69.3859 460.021C69.7781 464.306 70.5024 468.485 71.1964 472.514C72.7502 481.054 75.2815 489.387 78.7404 497.349C82.2655 505.33 86.625 512.916 91.7462 519.98C92.8627 521.489 93.9792 522.998 95.2918 524.627C98.355 528.472 101.64 532.134 105.129 535.596C108.539 539.052 111.3 541.451 111.542 541.828C110.244 540.726 107.951 538.961 105.506 536.562C102.723 533.973 100.075 531.244 97.5701 528.384C87.672 517.24 79.9907 504.31 74.9382 490.287C71.6663 481.029 69.5629 471.399 68.6767 461.62C67.7099 452.096 67.4829 442.512 67.9978 432.953C68.3599 426.103 69.1143 419.525 70.0195 413.007C71.0757 406.021 72.328 399.156 73.7161 392.337Z" fill="black"/>
<path fill-rule="evenodd" clip-rule="evenodd" d="M67.5753 413.263C67.4692 412.871 67.3836 412.473 67.3188 412.071C66.9181 410.755 66.3768 409.485 65.7044 408.284L64.9198 407.108C64.6437 406.667 64.3029 406.27 63.9089 405.931C63.8349 405.857 63.7456 405.801 63.6475 405.766C63.5493 405.731 63.4446 405.718 63.3409 405.728C63.2372 405.738 63.137 405.771 63.0474 405.825C62.9578 405.878 62.881 405.95 62.8226 406.036C62.5984 406.468 62.519 406.96 62.5962 407.44C62.6553 407.936 62.7928 408.42 63.0036 408.873C63.4534 409.802 64.1149 410.614 64.9349 411.242L65.478 411.664C65.9458 412.011 66.5342 412.343 66.9868 412.645C67.4395 412.947 67.8016 413.339 67.8016 413.46C67.0148 413.245 66.2665 412.909 65.5836 412.464C64.7605 411.99 64.0171 411.389 63.3808 410.683C62.7414 409.957 62.2861 409.088 62.0531 408.149C61.8877 407.495 61.8877 406.811 62.0531 406.157C62.1152 405.965 62.2153 405.787 62.3475 405.634C62.4796 405.481 62.6412 405.356 62.8226 405.267C63.0124 405.192 63.2178 405.165 63.4205 405.189C63.6232 405.212 63.8169 405.286 63.9843 405.403C64.4979 405.79 64.9331 406.271 65.2668 406.821C65.6012 407.306 65.9085 407.81 66.1872 408.33C66.5582 409.079 66.8563 409.862 67.0774 410.668C67.3563 411.508 67.5237 412.38 67.5753 413.263Z" fill="black"/>
<path fill-rule="evenodd" clip-rule="evenodd" d="M70.8947 421.32C71.2369 421.22 71.5845 421.14 71.9357 421.079C73.0777 420.675 74.1589 420.116 75.1495 419.419C75.8456 418.899 76.4608 418.279 76.9751 417.578C77.0872 417.412 77.1649 417.225 77.2038 417.028C77.2427 416.831 77.2418 416.628 77.2014 416.432C77.0958 416.1 76.6884 416.07 76.281 416.19C75.862 416.344 75.4579 416.536 75.074 416.764C74.2939 417.23 73.5914 417.816 72.9919 418.499L72.6147 418.982C72.3121 419.391 72.0446 419.825 71.815 420.279C71.674 420.551 71.5676 420.84 71.4982 421.139C71.3891 421.012 71.3172 420.858 71.2906 420.693C71.2639 420.528 71.2836 420.358 71.3473 420.204C71.4707 419.797 71.6429 419.407 71.8603 419.042C72.2849 418.311 72.8249 417.654 73.4596 417.096C74.0858 416.547 74.7999 416.109 75.5719 415.798C75.8524 415.623 76.1766 415.53 76.5074 415.53C76.8382 415.53 77.1623 415.623 77.4428 415.798C77.583 415.925 77.6884 416.087 77.7491 416.266C77.8098 416.446 77.8238 416.637 77.7898 416.824C77.7517 417.127 77.6543 417.419 77.5032 417.684C76.9148 418.608 76.1193 419.383 75.1796 419.947C74.542 420.332 73.864 420.646 73.1578 420.883C72.4252 421.124 71.6646 421.271 70.8947 421.32Z" fill="black"/>
<path fill-rule="evenodd" clip-rule="evenodd" d="M73.7763 391.386C73.6824 391.114 73.6364 390.828 73.6406 390.541C73.5709 390.04 73.6237 389.53 73.7945 389.055C73.9653 388.579 74.249 388.152 74.6213 387.81C74.8936 387.546 75.2228 387.347 75.5837 387.229C75.9445 387.112 76.3275 387.078 76.7034 387.131C77.104 387.182 77.4839 387.338 77.8048 387.584C78.1449 387.843 78.3969 388.201 78.5265 388.608C78.6561 389.016 78.657 389.454 78.529 389.862C78.2306 390.618 77.703 391.262 77.0202 391.703C76.866 391.8 76.7046 391.886 76.5374 391.959C76.1274 392.158 75.6901 392.295 75.2399 392.366C74.8023 392.366 74.4704 392.366 74.4251 392.231C74.9747 392.124 75.5146 391.973 76.0395 391.778C76.6078 391.51 77.1199 391.136 77.5483 390.677C77.9621 390.281 78.2056 389.74 78.2273 389.168C78.1756 388.793 78.013 388.441 77.7603 388.159C77.5076 387.877 77.1764 387.676 76.809 387.584C76.433 387.513 76.0456 387.535 75.6801 387.649C75.3147 387.762 74.9823 387.962 74.7118 388.232C74.3034 388.615 74.0151 389.107 73.882 389.651C73.7273 390.216 73.6913 390.806 73.7763 391.386Z" fill="black"/>
<path fill-rule="evenodd" clip-rule="evenodd" d="M73.5803 391.235C73.4307 391.303 73.2738 391.354 73.1126 391.386C72.8575 391.465 72.6341 391.624 72.4742 391.838C72.3143 392.052 72.2262 392.311 72.2224 392.578C72.3876 392.915 72.6727 393.179 73.022 393.317C73.2017 393.377 73.3911 393.403 73.5803 393.393C73.7577 393.407 73.9357 393.377 74.0988 393.306C74.2619 393.235 74.4051 393.125 74.5157 392.985C74.6261 392.856 74.6963 392.697 74.7177 392.528C74.7392 392.359 74.7109 392.188 74.6364 392.035C74.6012 391.968 74.5553 391.906 74.5007 391.854C74.3282 391.714 74.1347 391.602 73.9273 391.522C73.7161 391.431 73.535 391.326 73.535 391.265C73.8761 391.217 74.2239 391.275 74.5308 391.431C74.7449 391.52 74.9272 391.671 75.0538 391.864C75.1804 392.058 75.2453 392.286 75.24 392.518C75.2336 392.748 75.1745 392.974 75.0673 393.178C74.96 393.382 74.8075 393.559 74.6214 393.694C74.3678 393.857 74.0774 393.954 73.7768 393.975C73.4762 393.996 73.1751 393.941 72.9013 393.815C72.6046 393.729 72.3413 393.555 72.147 393.315C71.9527 393.074 71.8368 392.78 71.815 392.472C71.8393 392.262 71.9173 392.061 72.0415 391.889C72.1656 391.718 72.3318 391.581 72.5241 391.492C72.8553 391.336 73.2146 391.249 73.5803 391.235Z" fill="black"/>
<path fill-rule="evenodd" clip-rule="evenodd" d="M72.5694 392.789C72.2949 392.784 72.0239 392.727 71.7698 392.623C70.8472 392.424 69.9905 391.993 69.2803 391.371C68.669 390.974 68.232 390.359 68.0581 389.651C68.0208 389.446 68.0329 389.235 68.0932 389.036C68.1535 388.836 68.2605 388.654 68.4052 388.504C68.7168 388.244 69.088 388.066 69.4855 387.984C69.883 387.902 70.2946 387.921 70.6834 388.037C71.447 388.186 72.1652 388.511 72.7807 388.987C72.9187 389.089 73.0498 389.2 73.1729 389.319C73.5174 389.626 73.7595 390.032 73.867 390.481C73.867 391.009 73.5803 391.28 73.52 391.235C73.5589 390.998 73.5347 390.754 73.45 390.529C73.3653 390.304 73.2229 390.105 73.0372 389.953C72.5955 389.544 72.0846 389.217 71.5284 388.987C71.0082 388.758 70.4511 388.626 69.8838 388.595C69.1596 388.595 68.4957 388.972 68.5108 389.5C68.5259 390.028 69.1445 390.662 69.6575 391.16C70.0404 391.529 70.46 391.857 70.9098 392.14C71.4278 392.438 71.9871 392.656 72.5694 392.789Z" fill="black"/>
<path fill-rule="evenodd" clip-rule="evenodd" d="M72.6749 392.895C72.7805 393.091 72.7956 393.378 72.8862 393.604C73.26 394.348 73.8089 394.99 74.4855 395.475C74.9838 395.787 75.5367 396.002 76.115 396.109C76.4021 396.133 76.6909 396.091 76.9599 395.988C77.2138 395.882 77.424 395.693 77.5557 395.452C77.6874 395.21 77.7327 394.931 77.6841 394.66C77.6569 394.087 77.4081 393.546 76.9901 393.152C76.8994 393.059 76.7981 392.978 76.6883 392.91C76.4056 392.732 76.0942 392.605 75.768 392.533C75.4511 392.443 75.1795 392.367 75.1343 392.277C75.3692 392.162 75.6272 392.102 75.8887 392.102C76.1501 392.102 76.4081 392.162 76.6431 392.277C77.2247 392.508 77.6984 392.95 77.9708 393.514C78.2492 394.074 78.329 394.713 78.1971 395.324C78.1493 395.55 78.0566 395.764 77.9244 395.953C77.7922 396.142 77.6232 396.303 77.4276 396.426C77.0378 396.628 76.5972 396.712 76.1602 396.667C75.3695 396.59 74.6241 396.262 74.0328 395.732C73.6384 395.371 73.3204 394.935 73.0974 394.449C72.8564 393.964 72.7129 393.436 72.6749 392.895Z" fill="black"/>
<path fill-rule="evenodd" clip-rule="evenodd" d="M72.5693 392.472C72.3231 392.488 72.0762 392.488 71.83 392.472C71.0238 392.57 70.2821 392.962 69.7479 393.574C69.4279 394.043 69.2739 394.606 69.3103 395.173C69.3645 395.437 69.4958 395.678 69.6875 395.867C69.849 396.071 70.0602 396.229 70.3007 396.327C70.5413 396.424 70.803 396.458 71.0605 396.425C71.5794 396.249 72.0076 395.875 72.2524 395.384C72.3267 395.274 72.3923 395.158 72.4486 395.037C72.5865 394.734 72.7024 394.422 72.7956 394.102C72.9012 393.77 72.9918 393.513 73.0974 393.468C73.2664 393.957 73.2664 394.488 73.0974 394.977C72.9423 395.541 72.6523 396.059 72.2524 396.486C72.0336 396.743 71.7513 396.938 71.4337 397.052C71.116 397.165 70.7741 397.194 70.4419 397.135C70.0022 397.052 69.5991 396.835 69.2882 396.513C68.9774 396.192 68.7742 395.781 68.7068 395.339C68.6586 394.929 68.7072 394.514 68.8487 394.126C68.9902 393.738 69.2206 393.389 69.5215 393.106C69.9463 392.736 70.4713 392.499 71.0303 392.427C71.5409 392.335 72.065 392.351 72.5693 392.472Z" fill="black"/>
<path fill-rule="evenodd" clip-rule="evenodd" d="M66.4739 438.505C66.397 438.245 66.3514 437.977 66.3381 437.706C66.105 436.821 65.7495 435.973 65.282 435.186C64.9122 434.645 64.493 434.14 64.0297 433.677C63.9383 433.566 63.8189 433.48 63.6837 433.43C63.5485 433.38 63.4024 433.366 63.2602 433.391C62.7321 433.496 63.1395 434.356 63.3809 434.899C63.6702 435.524 64.0405 436.107 64.4823 436.634L64.7841 436.982C65.043 437.271 65.3257 437.539 65.629 437.781C65.9006 438.053 66.0816 438.309 66.0515 438.43C65.525 438.277 65.0469 437.992 64.6634 437.6C63.7233 436.758 63.0165 435.687 62.6114 434.492C62.5332 434.278 62.4825 434.055 62.4605 433.828C62.4415 433.679 62.4606 433.527 62.516 433.387C62.5714 433.248 62.6613 433.124 62.7774 433.028C63.0071 432.864 63.2904 432.793 63.5704 432.83C63.8503 432.866 64.1061 433.007 64.2862 433.225C64.8923 433.786 65.402 434.444 65.795 435.171C66.0317 435.654 66.2187 436.159 66.3532 436.68C66.4515 437.283 66.4919 437.894 66.4739 438.505Z" fill="black"/>
<path d="M240.468 235.392L235.941 246.813L234.433 259.91V271.829L233.211 277.427L234.553 293.435L237.737 306.486L235.112 311.224L237.239 324.909L236.862 334.203L234.342 352.474L237.48 369.177L237.631 379.964H266.449L265.453 359.309L266.721 345.82L265.106 329.827L267.505 315.448L266.132 310.922L267.973 294.069L268.501 277.804L267.837 260.046L263.13 236.056C263.13 236.056 247.755 237.067 240.468 235.392Z" fill="#F1FAEE"/>
<path d="M63.0188 549.055C62.8381 549.071 62.6564 549.071 62.4757 549.055C58.6886 549.055 15.8691 548.648 34.4423 554.306C53.8605 560.235 121.952 560.567 152.943 557.927C177.301 556.127 201.786 557.201 225.893 561.125C242.595 563.841 277.72 568.398 291.541 561.231C300.186 556.705 315.832 557.323 330.03 559.179C359.719 563.221 389.771 563.874 419.607 561.125C444.185 558.742 458.836 551.258 419.607 548.044C419.367 548.027 419.13 547.987 418.898 547.924L402.301 543.774C399.842 543.412 396.96 544.83 394.923 546.113C394.116 546.631 393.166 546.88 392.208 546.823C391.251 546.766 390.337 546.406 389.597 545.796C388.989 545.296 388.261 544.963 387.485 544.831L353.235 538.961C352.994 538.946 352.752 538.946 352.511 538.961L193.213 537.8L122.646 536.698C122.182 536.683 121.718 536.744 121.273 536.879L90.9466 545.932C90.6854 546.01 90.4178 546.066 90.1469 546.098L63.0188 549.055Z" fill="#FFD6B9"/>
<path opacity="0.33" d="M99.6372 542.22H99.1997C96.1821 542.22 61.6609 541.858 76.5678 546.746C92.214 551.831 147.074 552.118 171.999 549.854C191.61 548.307 211.338 549.225 230.721 552.585C244.165 554.924 272.454 558.832 283.529 552.691C290.484 548.844 303.143 549.326 314.535 550.926C338.444 554.396 362.687 554.953 386.73 552.585C406.526 550.548 418.279 544.121 386.73 541.345C386.532 541.329 386.336 541.299 386.142 541.254L372.729 537.678C370.573 537.646 368.473 538.36 366.784 539.7C366.143 540.133 365.375 540.342 364.603 540.293C363.83 540.244 363.096 539.94 362.514 539.429C362.036 538.996 361.445 538.709 360.809 538.599L333.229 533.544C333.033 533.529 332.836 533.529 332.64 533.544L204.393 532.533L147.572 531.583C147.198 531.584 146.827 531.64 146.47 531.749L122.043 539.549L121.409 539.685L99.6372 542.22Z" fill="#DDB499"/>
<path d="M126.66 247.04L136.618 254.025C137.33 254.526 138.17 254.816 139.04 254.862C139.91 254.907 140.775 254.706 141.536 254.282L149.895 249.589C154.852 246.823 160.349 245.166 166.009 244.731C178.804 243.796 202.039 243.479 215.105 251.807C215.559 252.091 216.103 252.196 216.63 252.101C217.157 252.006 217.63 251.719 217.957 251.294C218.27 250.905 218.441 250.421 218.441 249.921C218.441 249.422 218.27 248.937 217.957 248.548C214.381 244.278 201.149 231.801 166.658 229.07C154.383 227.98 142.124 231.314 132.091 238.47C129.97 239.98 128.026 241.727 126.298 243.675C126.089 243.915 125.933 244.195 125.837 244.498C125.742 244.801 125.711 245.12 125.745 245.436C125.779 245.752 125.878 246.058 126.035 246.333C126.192 246.609 126.405 246.85 126.66 247.04Z" fill="#F1FAEE"/>
<path d="M144.297 260.468C150.598 264.404 157.73 266.816 165.127 267.513C172.524 268.21 179.981 267.172 186.906 264.481C211.499 255.428 219.586 260.905 219.586 260.905C219.586 260.905 171.576 301.929 144.297 260.468Z" fill="#F1FAEE"/>
<path d="M152.867 379.813C159.421 381.57 166.313 381.631 172.896 379.989C179.479 378.347 185.536 375.057 190.497 370.429C208.24 354.39 217.036 357 217.036 357C217.036 357 190.587 410.246 152.867 379.813Z" fill="#F1FAEE"/>
<path d="M136.738 350.437C136.738 350.437 158.948 359.279 184.28 344.99C209.613 330.702 219.511 334.293 219.511 334.293C219.511 334.293 174.368 385.185 136.738 350.437Z" fill="#F1FAEE"/>
<path d="M145.867 298.595C145.867 298.595 188.49 325.059 218.424 279.282C218.424 279.282 200.319 291.202 183.994 290.915C167.669 290.628 145.867 298.595 145.867 298.595Z" fill="#F1FAEE"/>
<path d="M140.39 329.193C140.296 328.898 140.265 328.587 140.297 328.279C140.33 327.971 140.426 327.673 140.579 327.404C140.732 327.135 140.938 326.901 141.186 326.715C141.434 326.53 141.718 326.397 142.019 326.327C151.796 323.943 197.995 312.748 217.459 310.922C217.842 310.887 218.229 310.943 218.585 311.088C218.942 311.232 219.26 311.46 219.511 311.752C219.78 312.061 219.968 312.434 220.056 312.835C220.143 313.236 220.129 313.653 220.013 314.047C219.897 314.44 219.684 314.799 219.393 315.089C219.102 315.378 218.743 315.59 218.349 315.705C209.296 318.27 186.091 325.482 172.346 334.972C157.122 345.473 142.668 335.666 140.39 329.193Z" fill="#F1FAEE"/>
<path d="M92.591 364.092C92.591 364.092 68.6616 332.03 119.674 270.26C119.674 270.26 132.272 255.323 141.219 266.594C147.541 274.575 127.037 307.15 113.08 327.625C106.004 338.005 100.467 342.471 92.6061 364.092H92.591Z" fill="#F1FAEE"/>
<path d="M90.5542 366.34C90.5542 366.34 94.3111 389.41 108.765 406.278C123.22 423.146 122.586 443.922 121.877 446.638C121.515 447.966 121.062 449.294 119.719 449.58C116.702 450.214 110.244 447.211 98.8979 423.614C81.7731 388.067 90.5542 366.34 90.5542 366.34Z" fill="#F1FAEE"/>
<path d="M240.468 235.392C240.468 235.392 226.074 242.197 225.908 249.605C225.742 257.013 234.01 263.425 250.29 260.166" fill="#F1FAEE"/>
<path d="M234.342 259.91C234.342 259.91 226.179 266.066 227.824 271.331C228.82 274.53 231.747 277.004 236.771 277.864" fill="#F1FAEE"/>
<path d="M236.575 363.322C236.575 363.322 228.413 369.478 230.057 374.744C231.702 380.01 238.537 383.299 251.377 380.673" fill="#F1FAEE"/>
<path d="M233.935 277.11C233.935 277.11 226.18 283.024 225.908 289.376C225.727 293.435 234.252 293.676 240.468 293.314" fill="#F1FAEE"/>
<path d="M234.523 293.435C234.523 293.435 224.867 302.488 231.672 308.252C238.476 314.015 248.012 310.017 248.012 310.017" fill="#F1FAEE"/>
<path d="M235.489 310.907C235.489 310.907 227.311 317.063 228.956 322.329C230.6 327.595 236.5 331.382 249.385 328.832" fill="#F1FAEE"/>
<path d="M237.194 329.193C237.194 329.193 229.424 335.108 229.152 341.46C228.88 347.812 250.064 344.794 250.064 344.794" fill="#F1FAEE"/>
<path d="M235.595 345.519C235.595 345.519 225.938 354.572 232.743 360.335C239.548 366.099 249.098 362.101 249.098 362.101" fill="#F1FAEE"/>
<path d="M375.233 247.296L365.26 254.282C364.553 254.789 363.714 255.082 362.844 255.125C361.974 255.168 361.111 254.959 360.357 254.523L351.983 249.846C347.039 247.062 341.542 245.404 335.884 244.988C323.089 244.052 299.854 243.735 286.788 252.064C286.332 252.341 285.79 252.441 285.265 252.347C284.74 252.253 284.267 251.969 283.936 251.551C283.621 251.159 283.45 250.672 283.45 250.17C283.45 249.668 283.621 249.181 283.936 248.79C287.512 244.535 300.744 232.057 335.235 229.326C347.51 228.237 359.769 231.571 369.802 238.726C371.927 240.232 373.871 241.979 375.595 243.931C375.804 244.171 375.96 244.451 376.055 244.754C376.151 245.057 376.182 245.377 376.148 245.693C376.114 246.008 376.015 246.314 375.858 246.59C375.701 246.866 375.488 247.106 375.233 247.296Z" fill="#F1FAEE"/>
<path d="M357.595 260.785C351.292 264.722 344.157 267.134 336.757 267.828C329.357 268.522 321.898 267.48 314.972 264.783C290.394 255.731 282.307 261.223 282.307 261.223C282.307 261.223 330.316 302.247 357.595 260.785Z" fill="#F1FAEE"/>
<path d="M349.011 380.07C342.455 381.827 335.56 381.887 328.975 380.246C322.39 378.604 316.33 375.314 311.366 370.686C293.623 354.632 284.842 357.257 284.842 357.257C284.842 357.257 311.291 410.548 349.011 380.07Z" fill="#F1FAEE"/>
<path d="M365.154 350.739C365.154 350.739 342.975 359.595 317.612 345.368C292.25 331.14 282.382 334.67 282.382 334.67C282.382 334.67 327.525 385.501 365.154 350.739Z" fill="#F1FAEE"/>
<path d="M356.011 298.882C356.011 298.882 313.403 325.346 283.469 279.554C283.469 279.554 301.574 291.489 317.899 291.202C334.224 290.915 356.011 298.882 356.011 298.882Z" fill="#F1FAEE"/>
<path d="M361.503 329.495C361.597 329.201 361.628 328.891 361.595 328.584C361.563 328.277 361.467 327.98 361.314 327.712C361.16 327.444 360.953 327.211 360.706 327.027C360.458 326.843 360.175 326.712 359.874 326.644C350.082 324.245 303.898 313.064 284.434 311.239C284.051 311.203 283.664 311.26 283.307 311.405C282.951 311.549 282.633 311.777 282.382 312.069C282.113 312.378 281.925 312.751 281.837 313.152C281.75 313.553 281.764 313.969 281.88 314.363C281.996 314.757 282.209 315.116 282.5 315.406C282.791 315.695 283.15 315.907 283.544 316.022C292.597 318.587 315.802 325.799 329.547 335.289C344.756 345.79 359.225 335.968 361.503 329.495Z" fill="#F1FAEE"/>
<path d="M409.362 364.409C409.362 364.409 433.292 332.347 382.294 270.577C382.294 270.577 369.696 255.625 360.749 266.911C354.412 274.877 374.931 307.467 388.888 327.941C395.964 338.322 401.501 342.788 409.362 364.409Z" fill="#F1FAEE"/>
<path d="M411.339 366.657C411.339 366.657 407.582 389.726 393.128 406.595C378.673 423.463 379.292 444.239 380.016 446.94C380.363 448.283 380.831 449.61 382.174 449.882C385.191 450.531 391.649 447.513 402.995 423.931C420.12 388.383 411.339 366.657 411.339 366.657Z" fill="#F1FAEE"/>
<path d="M262.572 236.116C262.572 236.116 275.819 242.513 275.985 249.922C276.106 255.142 272.017 259.88 263.915 261.056" fill="#F1FAEE"/>
<path d="M267.536 260.227C267.536 260.227 275.698 266.382 274.054 271.648C272.409 276.914 265.574 280.203 252.734 277.578" fill="#F1FAEE"/>
<path d="M265.318 363.639C265.318 363.639 273.48 369.795 271.836 375.061C270.191 380.327 263.356 383.616 250.517 380.975" fill="#F1FAEE"/>
<path d="M267.958 277.472C267.958 277.472 275.713 283.372 275.985 289.739C276.256 296.106 255.073 293.073 255.073 293.073" fill="#F1FAEE"/>
<path d="M267.37 293.752C267.37 293.752 277.026 302.805 270.221 308.569C268.546 309.998 266.529 310.97 264.367 311.39" fill="#F1FAEE"/>
<path d="M266.404 311.224C266.404 311.224 274.582 317.38 272.922 322.646C271.579 326.961 266.751 329.948 258.015 329.435" fill="#F1FAEE"/>
<path d="M264.699 329.51C264.699 329.51 272.454 335.409 272.726 341.777C272.862 344.794 268.2 345.699 263.22 345.82" fill="#F1FAEE"/>
<path d="M266.283 345.836C266.283 345.836 275.94 354.889 269.15 360.652C267.076 362.382 264.523 363.435 261.832 363.67" fill="#F1FAEE"/>
<path d="M212.646 177.666L210.322 187.503C210.322 187.503 213.596 191.592 220.28 189.63L222.347 180.578" fill="#F1FAEE"/>
<path d="M228.609 207.615L229.816 200.81C229.816 200.81 226.27 196.978 219.737 199.392L218.952 204.084" fill="#F1FAEE"/>
<path d="M276.588 206.378L274.536 199.377C274.536 199.377 277.72 195.228 284.449 197.038L285.958 202.153" fill="#F1FAEE"/>
<path d="M243.395 210.829L244.391 203.119C244.391 203.119 240.679 199.452 234.267 202.168L233.361 208.943" fill="#F1FAEE"/>
<path d="M257.895 211.086L258.106 203.798C258.106 203.798 254.047 200.041 247.891 203.436L247.635 210.889" fill="#F1FAEE"/>
<path d="M272.454 207.932L271.368 200.735C271.368 200.735 266.706 197.717 261.259 202.244L262.466 210.618" fill="#F1FAEE"/>
<path d="M225.123 181.513L224.052 191.109C224.052 191.109 227.809 194.745 234.191 191.954L235.112 183.188" fill="#F1FAEE"/>
<path d="M238.703 183.821L238.34 193.462C238.34 193.462 242.339 196.812 248.51 193.553L248.781 183.912" fill="#F1FAEE"/>
<path d="M252.87 183.927L253.202 192.769C253.202 192.769 257.457 195.786 263.356 192.105L262.964 183.294" fill="#F1FAEE"/>
<path d="M265.242 182.72L266.842 191.018C266.842 191.018 271.504 193.372 276.784 188.816L275.276 180.94" fill="#F1FAEE"/>
<path d="M278.097 180.427L281.613 189.344C281.613 189.344 286.637 190.852 290.982 185.345L287.965 177.892" fill="#F1FAEE"/>
<path d="M218.274 203.797C210.581 200.175 204.286 194.134 200.349 186.597C199.506 185.034 198.272 183.716 196.767 182.772C195.262 181.828 193.539 181.29 191.764 181.211L175.469 180.426L188.475 205.321C189.495 207.238 191.016 208.841 192.876 209.96C194.736 211.078 196.866 211.671 199.036 211.673C202.597 211.673 208.18 213.982 216.599 222.235C218.872 224.482 221.358 226.503 224.022 228.27C232.258 233.852 242.034 236.717 251.98 236.463H252.599C262.545 236.717 272.321 233.852 280.557 228.27C283.22 226.503 285.706 224.482 287.98 222.235C296.399 213.997 301.981 211.673 305.542 211.673C307.713 211.671 309.842 211.078 311.702 209.96C313.563 208.841 315.084 207.238 316.104 205.321L329.11 180.426L311.774 180.803C310.057 180.848 308.379 181.32 306.891 182.176C305.402 183.032 304.151 184.246 303.249 185.707C299.565 191.247 294.932 196.094 289.564 200.025C278.535 206.86 255.028 219.594 218.274 203.797Z" fill="#F1FAEE"/>
<path d="M294.573 174.784C242.957 194.971 206.007 174.467 206.007 174.467L209.432 173.109C209.432 173.109 155.206 190.49 168.453 139.071C169.268 135.982 170.307 132.956 171.561 130.018C173.99 124.3 178.592 111.294 174.7 102.769L171.908 117.012C171.837 117.363 171.662 117.684 171.406 117.934C171.151 118.185 170.827 118.353 170.475 118.418C170.123 118.483 169.76 118.441 169.432 118.298C169.104 118.155 168.826 117.918 168.634 117.616C162.735 108.035 149.548 80.3937 168.755 47.8943C175.999 35.8647 186.087 25.798 198.131 18.5785C210.953 10.7444 225.022 5.16655 239.729 2.08738C243.408 1.34221 247.155 0.978172 250.909 1.00105C254.668 0.977456 258.419 1.34149 262.104 2.08738C277.295 5.27092 291.802 11.1198 304.954 19.363C316.181 26.2929 325.632 35.7538 332.55 46.9891C352.556 79.8958 339.173 107.959 333.213 117.631C332.368 119.004 330.196 118.642 329.879 116.665L327.148 102.784C323.301 111.233 327.797 124.088 330.241 129.942C331.532 132.969 332.601 136.085 333.44 139.267C346.551 190.566 292.431 173.169 292.431 173.169L294.573 174.784Z" fill="#F1FAEE"/>
<path d="M187.57 104.142C184.16 112.033 175.846 136.128 198.584 141.454C203.404 142.506 208.399 142.47 213.204 141.349C245.145 134.348 234.418 108.246 230.646 100.822C230.344 100.229 229.874 99.7372 229.294 99.4097C228.714 99.0822 228.051 98.9333 227.387 98.9817L191.357 101.456C190.538 101.509 189.751 101.788 189.082 102.262C188.413 102.736 187.89 103.387 187.57 104.142Z" fill="#1B1633"/>
<path d="M313.856 104.142C317.265 112.033 325.579 136.128 302.841 141.454C298.021 142.506 293.026 142.47 288.221 141.349C256.28 134.348 266.992 108.246 270.779 100.822C271.081 100.229 271.551 99.7372 272.131 99.4097C272.711 99.0822 273.374 98.9333 274.038 98.9817L310.068 101.456C310.887 101.509 311.674 101.788 312.343 102.262C313.012 102.736 313.535 103.387 313.856 104.142Z" fill="#1B1633"/>
<path d="M251.889 119.743C251.889 119.743 247.454 134.71 239.698 144.095C231.943 153.48 235.579 162.034 235.579 162.034C235.579 162.034 240.679 160.526 246.141 165.987C250.124 169.956 258.649 166.802 262.949 164.826C263.902 164.387 264.731 163.719 265.363 162.882C265.995 162.045 266.409 161.064 266.57 160.028C267.175 155.221 266.11 150.352 263.552 146.237C257.804 136.038 253.73 129.445 251.889 119.743Z" fill="#1B1633"/>
<path d="M376.667 378.335H125.226C120.468 378.335 116.611 382.192 116.611 386.95V533.183C116.611 537.941 120.468 541.798 125.226 541.798H376.667C381.425 541.798 385.282 537.941 385.282 533.183V386.95C385.282 382.192 381.425 378.335 376.667 378.335Z" fill="#E0E0E0"/>
<path d="M385.644 495.915V533.801C385.644 536.082 384.738 538.269 383.125 539.882C381.512 541.495 379.325 542.401 377.044 542.401H125.588C123.306 542.401 121.117 541.495 119.502 539.883C117.887 538.27 116.977 536.083 116.973 533.801" stroke="#7C7C7C" stroke-width="1.50879" stroke-miterlimit="10" stroke-linecap="round"/>
<path d="M100.769 547.365C100.769 547.365 1.67129 562.453 0.0267018 463.747C0.0267018 463.747 -0.471199 450.636 2.83306 449.655C6.13731 448.675 11.8858 452.386 17.4834 468.349C22.5228 482.743 30.972 520.357 109.656 546.701L100.769 547.365Z" fill="#E5AC62"/>
<path d="M101.976 541.797C101.976 541.797 64.437 521.791 60.9366 477.025C57.4362 432.259 57.8134 369.508 42.9367 372.526C28.06 375.543 19.8974 408.164 21.4213 432.093C22.6887 451.828 25.9477 479.484 48.8059 505.933C56.4541 514.61 65.3291 522.123 75.1495 528.233C104.692 547.018 109.656 546.339 109.656 546.339L101.976 541.797Z" fill="#B44538"/>
<path d="M129.692 547.244C130.764 548.165 133.811 550.337 124.049 547.818C105.944 543.125 58.9299 515.439 76.8996 438.008C77.4428 435.639 81.426 431.158 82.105 437.631C84.2324 458.527 99.0035 520.644 129.692 547.244Z" fill="#7F265B"/>
<path d="M355.302 546.234C356.373 547.154 359.421 549.327 349.659 546.807C331.554 542.13 284.54 514.428 302.494 436.997C303.053 434.628 307.021 430.147 307.715 436.62C309.782 457.502 324.613 519.634 355.302 546.234Z" fill="#7F265B"/>
<path d="M95.6086 491.6C95.6086 491.6 87.2348 447.453 93.7981 433.663C102.112 416.146 101.553 503.565 103.877 510.611C103.877 510.536 96.1216 493.848 95.6086 491.6Z" fill="#E5AC62"/>
<path d="M155.176 546.852C154.995 548.633 158.088 549.085 159.702 548.24C169.419 542.899 186 520.101 177.461 484.267C167.955 444.269 157.258 526.634 155.176 546.852Z" fill="#B44538"/>
<path d="M218.666 547.44C218.379 548.436 219.964 548.949 220.869 548.663C226.542 546.611 237.662 535.34 236.983 514.232C236.228 490.665 221.91 536.215 218.666 547.44Z" fill="#7F265B"/>
<path d="M161.015 549.055C161.015 549.055 135.365 555.633 139.514 476.859C143.664 398.085 150.076 507.804 150.076 507.804C150.076 507.804 151.585 546.701 161.015 549.055Z" fill="#7F265B"/>
<path d="M359.195 547.666C359.195 547.666 333.545 554.245 337.695 475.471C341.844 396.697 348.256 506.401 348.256 506.401C348.256 506.401 349.765 545.252 359.195 547.666Z" fill="#7F265B"/>
<path d="M159.265 548.662C159.265 548.662 162.614 513.07 182.244 499.355C199.957 486.998 175.846 536.698 164.968 548.406C163.791 549.688 160.532 549.296 159.265 548.662Z" fill="#E5AC62"/>
<path d="M199.429 545.057C199.429 545.057 202.763 509.464 222.408 495.749C240.121 483.377 215.995 533.077 205.132 544.785C203.94 546.037 200.681 545.675 199.429 545.057Z" fill="#E5AC62"/>
<path d="M380.378 549.175C380.378 549.175 446.448 500.29 469.322 509.494C492.195 518.698 396.115 551.303 380.378 549.175Z" fill="#B44538"/>
<path d="M369.228 549.87C369.228 549.87 398.197 525.065 413.119 494.346C428.041 463.627 448.893 421.486 490.158 422.573C531.423 423.659 420.588 518.698 420.588 518.698C420.588 518.698 399.691 539.263 380.439 548.391C379.835 548.678 379.277 549.01 378.703 549.341C377.299 550.228 375.692 550.742 374.034 550.834C372.376 550.927 370.722 550.595 369.228 549.87Z" fill="#E5AC62"/>
<path d="M356.554 549.266C356.554 549.266 373.996 505.3 380.529 490.212C386.76 475.728 409.196 445.039 421.659 444.556C434.846 444.058 375.475 540.304 366.135 549.297C366.135 549.266 363.495 546.038 356.554 549.266Z" fill="#7F265B"/>
<path d="M356.751 548.708C356.751 548.708 333.923 522.228 353.99 498.751C374.056 475.275 356.751 548.708 356.751 548.708Z" fill="#E5AC62"/>
<path d="M269.406 549.266C269.406 549.266 246.594 522.801 266.645 499.325C286.697 475.848 269.406 549.266 269.406 549.266Z" fill="#E5AC62"/>
<path d="M199.64 546.218C199.64 546.218 176.827 519.739 196.879 496.262C216.931 472.785 199.64 546.218 199.64 546.218Z" fill="#B44538"/>
<path d="M291.556 545.208C291.556 545.208 268.743 518.728 288.795 495.251C308.846 471.775 291.556 545.208 291.556 545.208Z" fill="#B44538"/>
<path d="M268.894 549.146C268.894 549.146 237.948 532.911 247.921 503.791C257.894 474.672 268.894 549.146 268.894 549.146Z" fill="#7F265B"/>
<path d="M345.782 547.078C345.782 547.078 329.864 541.677 334.828 531.161C334.828 531.161 343.654 520.75 348.15 543.714C348.238 544.092 348.245 544.485 348.17 544.866C348.096 545.247 347.942 545.608 347.718 545.925C347.494 546.243 347.206 546.51 346.873 546.708C346.539 546.907 346.167 547.033 345.782 547.078Z" fill="#B44538"/>
<path d="M248.887 546.429C248.887 546.429 232.954 541.028 237.933 530.512C237.933 530.512 246.759 520.101 251.241 543.065C251.331 543.442 251.34 543.834 251.267 544.215C251.194 544.596 251.042 544.958 250.82 545.276C250.597 545.594 250.31 545.861 249.977 546.06C249.644 546.258 249.272 546.384 248.887 546.429Z" fill="#B44538"/>
<path d="M196.818 547.078C196.818 547.078 180.901 541.677 185.865 531.161C185.865 531.161 194.691 520.75 199.187 543.714C199.272 544.092 199.277 544.484 199.202 544.864C199.126 545.244 198.972 545.604 198.749 545.921C198.526 546.238 198.239 546.505 197.906 546.704C197.574 546.903 197.203 547.031 196.818 547.078Z" fill="#7F265B"/>
<path d="M136.421 548.24C136.421 548.24 152.339 542.839 147.375 532.322C147.375 532.322 138.549 521.912 134.053 544.876C133.965 545.254 133.958 545.646 134.033 546.028C134.107 546.409 134.261 546.77 134.485 547.087C134.709 547.405 134.997 547.672 135.33 547.87C135.664 548.069 136.036 548.195 136.421 548.24Z" fill="#E5AC62"/>
<path d="M290.047 545.056C290.047 545.056 297.727 518.275 322.742 492.158C347.758 466.041 358.953 454.755 370.586 452.326C382.219 449.897 334.813 504.228 319.016 518.275C303.219 532.322 298.391 543.728 293.774 545.056C289.157 546.384 290.047 545.056 290.047 545.056Z" fill="#E5AC62"/>
<path d="M310.129 543.744C311.136 534.241 315.8 525.502 323.135 519.377C335.311 509.494 331.192 520.886 331.192 520.886C331.192 520.886 327.405 538.825 315.893 543.774C315.893 543.744 311.849 545.675 310.129 543.744Z" fill="#B44538"/>
<path d="M268.667 545.554C268.693 544.548 268.668 543.541 268.592 542.537C268.049 534.616 267.747 502.056 297.515 487.843C331.524 471.608 271.398 550.277 271.398 550.277C271.398 550.277 268.577 550.428 268.667 545.554Z" fill="#7F265B"/>
<path d="M199.912 546.158C199.912 546.158 212.253 516.284 222.8 513.794C233.346 511.305 208.029 545.057 208.029 545.057C208.029 545.057 203.201 547.335 199.912 546.158Z" fill="#B44538"/>
<path d="M136.482 546.58C136.693 548.632 133.072 549.145 131.246 548.18C119.84 542.024 100.392 515.861 110.41 474.521C121.59 428.472 134.038 523.3 136.482 546.58Z" fill="#B44538"/>
<path d="M239.472 471.307L240.996 485.595L247.695 486.757L256.476 486.229L262.285 485.022L263.613 471.307H239.472Z" fill="#F1FAEE"/>
<path d="M259.237 474.188V485.595C264.141 489.744 266.057 484.916 266.057 484.916L266.6 463.084C266.6 463.084 284.163 454.529 280.873 436.303C279.531 428.909 274.34 424.081 268.652 420.958C263.221 417.996 257.133 416.444 250.947 416.444C244.76 416.444 238.672 417.996 233.241 420.958C227.553 424.081 222.362 428.909 221.02 436.303C217.746 454.529 235.278 463.053 235.278 463.053L235.836 484.886C235.836 484.886 239.351 490.046 243.289 485.761L243.184 472.71" fill="#F1FAEE"/>
<path d="M243.289 485.791C243.289 485.791 248.555 490.484 250.939 485.791V473.45" fill="#F1FAEE"/>
<path d="M250.939 485.791C250.939 485.791 255.314 490.74 259.237 485.595L250.939 485.791Z" fill="#F1FAEE"/>
<path d="M237.013 442.323C236.753 442.273 236.486 442.279 236.229 442.34C235.972 442.401 235.73 442.516 235.521 442.677C235.311 442.838 235.138 443.042 235.013 443.275C234.888 443.507 234.814 443.764 234.795 444.028C234.433 448.901 234.433 464.034 243.018 462.209C253.247 460.021 248.721 449.293 242.595 444.812C240.965 443.54 239.049 442.685 237.013 442.323Z" fill="#1B1633"/>
<path d="M265.046 442.323C265.305 442.276 265.572 442.283 265.828 442.345C266.084 442.407 266.325 442.522 266.533 442.683C266.742 442.844 266.915 443.046 267.041 443.278C267.167 443.51 267.243 443.765 267.264 444.028C267.611 448.901 267.611 464.034 259.026 462.209C248.796 460.021 253.323 449.294 259.448 444.812C261.084 443.539 263.005 442.684 265.046 442.323Z" fill="#1B1633"/>
<path opacity="0.35" d="M173.794 124.013C173.794 124.013 157.62 158.414 173.221 170.786C187.932 180.97 209.432 173.139 209.432 173.139C209.432 173.139 166.024 176.504 173.794 124.013Z" fill="#AD7B40"/>
<path opacity="0.35" d="M131.322 250.314C131.322 250.314 177.461 221.873 217.957 251.295C217.957 251.295 217.112 253.377 214.275 251.295C211.439 249.213 195.566 242.242 169.449 244.611C160.488 245.008 151.8 247.812 144.297 252.728C144.297 252.728 140.103 256.953 136.105 253.663C132.106 250.374 131.322 250.314 131.322 250.314Z" fill="#AD7B40"/>
<path opacity="0.35" d="M145.142 261.721C145.142 261.721 164.259 289.316 219.586 260.906C219.586 260.906 198.116 279.524 175.831 279.011C153.546 278.498 145.142 261.721 145.142 261.721Z" fill="#AD7B40"/>
<path opacity="0.35" d="M146.334 298.837C146.334 298.837 190.089 310.364 217.957 279.962C217.957 279.962 204.468 305.294 176.48 306.124C176.48 306.139 159.536 307.09 146.334 298.837Z" fill="#AD7B40"/>
<path opacity="0.35" d="M140.39 329.193C140.39 329.193 152.113 341.867 197.045 320.291C214.381 313.637 209.658 317.364 219.586 313.23C219.586 313.23 220.793 315.493 216.885 316.127C212.978 316.761 194.631 323.671 194.631 323.671L175.499 332.935C175.499 332.935 159.506 346.514 145.323 335.168C143.332 333.49 141.661 331.466 140.39 329.193Z" fill="#AD7B40"/>
<path opacity="0.35" d="M138.489 351.991C138.489 351.991 170.686 372.707 219.194 334.625C219.194 334.625 194.027 362.357 166.824 362.583C166.824 362.583 152.747 364.107 138.489 351.991Z" fill="#AD7B40"/>
<path opacity="0.35" d="M92.591 364.092C92.591 364.092 90.4335 341.324 112.613 306.139C115.706 301.385 119.242 296.935 123.174 292.847C136.029 279.102 134.973 263.471 135.743 262.671C135.743 262.671 144.011 265.688 142.396 272.176C141.355 277.155 136.889 293.073 120.836 316.022C104.782 338.971 99.7125 347.706 99.7125 347.706L92.591 364.092Z" fill="#AD7B40"/>
<path opacity="0.35" d="M90.7654 367.517C90.7654 367.517 94.8995 389.937 107.83 405.161C111.498 409.538 114.507 414.428 116.762 419.676C116.234 429.754 118.12 423.161 116.355 428.276C116.355 428.276 116.551 441.976 116.143 448.78C112.507 448.448 113.714 431.399 112.537 428.925C108.509 420.505 103.485 410.744 95.2164 396.636C90.7654 389.198 89.5735 371.575 90.7654 367.517Z" fill="#AD7B40"/>
<path opacity="0.35" d="M327.736 124.179C327.736 124.179 343.926 158.579 328.325 170.951C313.599 181.121 292.114 173.29 292.114 173.29C292.114 173.29 335.522 176.67 327.736 124.179Z" fill="#AD7B40"/>
<path opacity="0.35" d="M370.209 250.495C370.209 250.495 324.085 222.054 283.589 251.476C283.589 251.476 284.419 253.543 287.271 251.476C290.122 249.409 305.965 242.423 332.082 244.792C341.043 245.188 349.731 247.992 357.233 252.909C357.233 252.909 361.428 257.119 365.441 253.845C369.455 250.571 370.209 250.495 370.209 250.495Z" fill="#AD7B40"/>
<path opacity="0.35" d="M356.404 261.902C356.404 261.902 337.272 289.498 281.96 261.087C281.96 261.087 303.415 279.705 325.715 279.192C348.015 278.679 356.404 261.902 356.404 261.902Z" fill="#AD7B40"/>
<path opacity="0.35" d="M355.196 299.017C355.196 299.017 311.441 310.529 283.589 280.127C283.589 280.127 297.078 305.475 325.066 306.305C325.066 306.305 341.994 307.27 355.196 299.017Z" fill="#AD7B40"/>
<path opacity="0.35" d="M361.081 329.359C361.081 329.359 349.358 342.033 304.426 320.473C287.105 313.804 291.812 317.546 281.899 313.411C281.899 313.411 280.692 315.675 284.6 316.308C288.508 316.942 306.84 323.852 306.84 323.852L326.001 333.071C326.001 333.071 341.995 346.65 356.177 335.289C358.161 333.629 359.823 331.619 361.081 329.359Z" fill="#AD7B40"/>
<path opacity="0.35" d="M363.042 352.158C363.042 352.158 330.905 372.888 282.337 334.806C282.337 334.806 307.504 362.538 334.722 362.749C334.722 362.749 348.799 364.288 363.042 352.158Z" fill="#AD7B40"/>
<path opacity="0.35" d="M408.955 364.273C408.955 364.273 411.097 341.505 388.918 306.32C385.853 301.566 382.342 297.115 378.432 293.028C365.592 279.283 366.648 263.637 365.864 262.852C365.864 262.852 357.595 265.87 359.225 272.342C360.251 277.321 364.717 293.254 380.771 316.203C396.824 339.152 401.894 347.888 401.894 347.888L408.955 364.273Z" fill="#AD7B40"/>
<path opacity="0.35" d="M410.765 367.683C410.765 367.683 406.646 390.119 393.716 405.327C390.471 409.192 387.742 413.463 385.599 418.032C386.066 430.389 385.282 442.896 385.372 449.294C385.372 449.294 389.069 449.46 388.993 438.083C388.985 433.39 390.016 428.753 392.011 424.504C395.496 417.051 399.887 407.908 406.329 396.878C410.765 389.38 411.972 371.742 410.765 367.683Z" fill="#AD7B40"/>
<path d="M183.3 118.868C183.3 118.868 182.998 133.02 188.746 136.581C194.495 140.142 199.308 143.793 211.816 141.635C224.324 139.478 230.51 132.583 230.51 132.583C230.51 132.583 235.851 125.522 235.791 117.676C235.791 117.676 233.92 132.537 215.648 136.702C210.258 137.852 204.711 138.072 199.248 137.35C184.054 134.65 183.3 118.868 183.3 118.868Z" fill="#0A0A16"/>
<path d="M318.322 118.868C318.322 118.868 318.638 133.02 312.875 136.581C307.111 140.142 302.313 143.793 289.805 141.635C277.298 139.478 271.127 132.583 271.127 132.583C271.127 132.583 265.785 125.522 265.831 117.676C265.831 117.676 267.702 132.537 285.973 136.702C291.363 137.852 296.91 138.072 302.374 137.35C317.582 134.65 318.322 118.868 318.322 118.868Z" fill="#0A0A16"/>
<path d="M235.579 162.035C235.579 162.035 233.211 157.207 236.409 149.331C239.608 141.455 241.539 144.97 244.692 136.672C246.267 132.305 248.19 128.072 250.441 124.013C250.441 124.013 247.167 143.28 243.636 145.498C240.106 147.716 234.493 155.698 238.371 159.409C242.248 163.121 242.474 157.342 247.091 163.845C251.708 170.348 259.856 166.108 259.856 166.108L253.67 168.296C253.67 168.296 249.415 169.141 244.949 164.916C243.745 163.701 242.26 162.803 240.626 162.3C238.991 161.797 237.258 161.706 235.579 162.035Z" fill="#0A0A16"/>
<path opacity="0.11" d="M168.634 116.967C168.634 116.967 148.16 90.7136 166.431 51.4549C194.917 3.86752 246.579 1.1517 246.579 1.1517C246.579 1.1517 153.426 26.8012 174.7 102.12C172.255 125.718 168.559 114.809 168.634 116.967Z" fill="#E5AC62"/>
<path opacity="0.11" d="M333.379 117.948C333.379 117.948 353.869 91.6946 335.597 52.4509C307.111 4.84847 255.465 2.14772 255.465 2.14772C255.465 2.14772 348.603 27.7972 327.329 103.116C329.773 126.699 333.47 115.79 333.379 117.948Z" fill="#E5AC62"/>
<path opacity="0.35" d="M202.657 211.749C202.657 211.749 213.46 217.996 217.323 223.02C221.185 228.044 234.689 235.799 245.552 236.116C256.416 236.433 261.561 236.901 272.394 232.631C280.979 229.266 288.281 222.326 290.937 219.58C291.759 218.734 292.652 217.962 293.607 217.271C295.948 215.451 298.477 213.888 301.151 212.609C301.921 212.368 299.326 211.1 288.1 219.037C274.763 228.406 247.785 235.211 217.594 220.319C216.199 219.624 214.897 218.758 213.717 217.739C206.324 211.342 207.048 214.993 202.657 211.749Z" fill="#AD7B40"/>
<path opacity="0.35" d="M230.012 242.393C230.012 242.393 215.829 255.082 238.582 260.815C247.997 263.637 266.962 263.637 273.661 256.289C278.097 251.008 234.734 266.126 230.012 242.393Z" fill="#AD7B40"/>
<path opacity="0.35" d="M228.201 267.348C228.201 267.348 222.574 280.113 250.833 279.011C279.093 277.91 273.978 270.502 273.978 270.502C273.978 270.502 231.702 283.115 228.201 267.348Z" fill="#AD7B40"/>
<path opacity="0.35" d="M273.978 283.99C273.978 283.99 285.324 296.619 253.941 294.431C253.941 294.431 234.086 294.914 228.292 292.319C222.498 289.723 226.859 285.589 226.859 285.589C226.859 285.589 245.613 299.998 273.978 283.99Z" fill="#AD7B40"/>
<path opacity="0.35" d="M229.152 301.869C229.152 301.869 226.813 313.08 247.74 311.39C247.74 311.39 265.846 315.433 271.881 306.712C277.916 297.992 244.119 317.576 229.152 301.401" fill="#AD7B40"/>
<path opacity="0.35" d="M228.775 320.292C228.775 320.292 226.345 331.623 251.859 330.476C277.373 329.329 272.741 320.367 272.741 320.367C272.741 320.367 239.261 333.297 228.775 320.292Z" fill="#AD7B40"/>
<path opacity="0.35" d="M230.314 337.824C230.314 337.824 221.14 347.103 249.385 344.825C249.385 344.825 264.171 349.351 271.564 343.316C278.957 337.281 234.508 347.148 230.314 337.824Z" fill="#AD7B40"/>
<path opacity="0.35" d="M195.023 378.335H200.515C207.031 372.077 212.583 364.887 216.991 357.001C209.655 366.166 200.263 373.475 189.576 378.335H195.023Z" fill="#AD7B40"/>
<path opacity="0.35" d="M301.106 378.335C294.712 372.114 289.254 364.999 284.902 357.212C292.084 366.22 301.249 373.449 311.683 378.335C306.372 378.124 306.04 378.23 301.106 378.335Z" fill="#AD7B40"/>
<path opacity="0.35" d="M230.434 354.119C230.434 354.119 227.417 364.56 248.736 363.7C270.055 362.84 269.014 362.613 271.051 358.162C273.088 353.711 238.144 365.389 230.434 354.119Z" fill="#AD7B40"/>
<path opacity="0.35" d="M230.676 371.379C230.676 371.379 228.563 376.011 234.116 378.501C237.42 378.501 241.403 378.501 249.098 378.259C263.326 377.686 267.988 379.602 269.859 378.154C270.795 377.429 270.613 376.901 271.368 375.423C273.329 371.017 238.371 382.635 230.676 371.379Z" fill="#AD7B40"/>
<path opacity="0.35" d="M212.646 177.666L222.347 180.593L220.763 187.594C220.763 187.594 220.491 182.313 212.646 177.666Z" fill="#AD7B40"/>
<path opacity="0.35" d="M224.445 187.594C225.692 186.106 227.276 184.939 229.066 184.188C230.856 183.437 232.8 183.126 234.735 183.279L225.38 181.121L224.445 187.82" fill="#AD7B40"/>
<path opacity="0.35" d="M238.34 186.613C238.34 186.613 244.376 184.591 248.706 186.975V183.671H238.612L238.34 186.613Z" fill="#AD7B40"/>
<path opacity="0.35" d="M252.976 186.281C252.976 186.281 258.724 183.806 263.085 185.843L262.828 182.826L253.232 183.248L252.976 186.281Z" fill="#AD7B40"/>
<path opacity="0.35" d="M266.283 188.106C266.283 188.106 273.088 180.985 275.215 180.94L265.242 182.72L266.283 188.106Z" fill="#AD7B40"/>
<path opacity="0.35" d="M278.097 180.427C278.097 180.427 286.546 179.476 289.986 182.856L287.648 177.017L278.097 180.427Z" fill="#AD7B40"/>
<path opacity="0.35" d="M219.254 202.515C219.254 202.515 226.044 205.276 229.227 204.341L228.654 207.615L218.47 203.858L219.254 202.515Z" fill="#AD7B40"/>
<path opacity="0.35" d="M233.663 206.378C236.918 207.872 240.56 208.305 244.074 207.615L243.561 210.829L233.316 208.943L233.663 206.378Z" fill="#AD7B40"/>
<path opacity="0.35" d="M247.635 208.596C247.635 208.596 253.549 210.286 258.03 208.596L257.895 211.131H247.635V208.596Z" fill="#AD7B40"/>
<path opacity="0.35" d="M262.119 208.068C265.606 208.404 269.112 207.667 272.168 205.956L272.696 208.068L262.466 210.527L262.119 208.068Z" fill="#AD7B40"/>
<path opacity="0.35" d="M275.894 204.129C279.26 203.311 282.426 201.823 285.204 199.754L285.913 201.942L276.422 206.755L275.894 204.129Z" fill="#AD7B40"/>
<path d="M116.656 413.354V385.879C116.656 385.879 118.09 378.335 124.608 378.335H148.914V379.467C142.031 379.648 135.171 380.354 128.395 381.579C126.423 382.027 124.633 383.06 123.259 384.544C121.886 386.028 120.994 387.892 120.7 389.893C119.402 398.297 117.531 413.4 117.531 413.4L116.656 413.354Z" fill="#F1FAEE"/>
<path d="M385.221 413.354V385.879C385.221 385.879 383.788 378.335 377.27 378.335H352.963V379.467C359.852 379.647 366.717 380.353 373.498 381.579C375.468 382.03 377.256 383.065 378.629 384.548C380.001 386.031 380.895 387.894 381.193 389.893C382.49 398.297 384.361 413.4 384.361 413.4L385.221 413.354Z" fill="#F1FAEE"/>
<path opacity="0.35" d="M224.007 452.326C224.007 452.326 224.007 455.178 235.278 463.084L235.775 482.698L235.157 476.844C233.657 470.155 231.034 463.768 227.402 457.954C225.138 454.122 225.38 455.631 224.007 452.326Z" fill="#AD7B40"/>
<path opacity="0.35" d="M277.841 452.326C277.841 452.326 277.841 455.178 266.555 463.084L266.057 482.698L266.676 476.844C268.182 470.157 270.804 463.771 274.431 457.954C276.709 454.122 276.468 455.631 277.841 452.326Z" fill="#AD7B40"/>
<path d="M478.586 438.129C478.586 438.129 477.379 439.894 475.176 443.062C474.074 444.662 472.716 446.608 471.087 448.811C469.457 451.014 467.662 453.594 465.55 456.355C461.4 461.892 456.286 468.35 450.462 475.396C448.953 477.161 447.444 478.911 445.935 480.737C444.426 482.562 442.767 484.403 441.107 486.259C437.818 490.001 434.287 493.803 430.697 497.635C427.106 501.468 423.454 505.179 419.894 508.634C418.143 510.405 416.398 512.11 414.658 513.749C412.908 515.394 411.233 517.038 409.558 518.592C402.844 524.824 396.673 530.271 391.362 534.706C388.737 536.97 386.278 538.916 384.15 540.651C382.023 542.386 380.167 543.865 378.628 545.042C375.61 547.425 373.875 548.723 373.875 548.723L378.583 544.981C380.092 543.774 381.947 542.311 384.06 540.545C386.172 538.78 388.586 536.834 391.226 534.51C396.522 529.984 402.678 524.567 409.332 518.336C411.007 516.827 412.682 515.137 414.417 513.493C416.152 511.848 417.902 510.143 419.652 508.363C423.213 504.893 426.774 501.166 430.44 497.364C434.106 493.562 437.546 489.82 440.836 486.003C442.505 484.162 444.12 482.326 445.679 480.495C447.188 478.67 448.772 476.92 450.205 475.154C456.074 468.138 461.204 461.681 465.369 456.174C467.496 453.443 469.322 450.893 470.951 448.63C472.581 446.367 473.969 444.496 475.085 442.911C477.333 439.864 478.586 438.129 478.586 438.129Z" fill="white"/>
<path d="M454.913 516.043C454.913 516.043 454.022 516.737 452.348 517.868C449.964 519.455 447.496 520.911 444.955 522.229C441.741 523.904 437.803 525.714 433.382 527.525C428.961 529.335 424.043 531.267 418.898 533.303L392.554 543.639L384.558 546.747C382.672 547.471 381.615 547.848 381.615 547.848L384.527 546.656L392.479 543.473L418.792 533.032C423.937 530.995 428.841 529.094 433.276 527.283C437.712 525.473 441.635 523.707 444.864 522.048C447.409 520.757 449.887 519.337 452.287 517.793C453.147 517.25 453.796 516.797 454.234 516.495L454.913 516.043Z" fill="white"/>
<path d="M357.927 503.58C357.927 503.58 357.807 504.183 357.55 505.285C357.294 506.386 356.947 507.97 356.539 509.947C355.488 515.082 354.757 520.277 354.352 525.503C354.352 527.011 354.186 528.52 354.171 530.029C354.155 531.538 354.171 532.866 354.171 534.208C354.258 536.562 354.475 538.909 354.819 541.239C354.94 542.235 355.121 543.125 355.257 543.91C355.393 544.694 355.544 545.419 355.679 545.917C355.936 547.018 356.057 547.622 356.057 547.622C356.057 547.622 355.875 547.033 355.604 545.932C355.42 545.276 355.269 544.611 355.151 543.94C354.985 543.156 354.789 542.265 354.653 541.254C354.287 538.92 354.046 536.568 353.929 534.208C353.929 532.881 353.824 531.477 353.929 530.029C354.035 528.581 354.005 527.011 354.095 525.503C354.482 520.264 355.249 515.06 356.388 509.932C356.811 507.955 357.203 506.371 357.49 505.285C357.777 504.198 357.927 503.58 357.927 503.58Z" fill="white"/>
<path d="M358.44 467.957C358.44 467.957 357.369 468.938 355.423 470.658C353.476 472.378 350.655 474.898 347.23 478.081C343.805 481.265 339.761 485.082 335.416 489.458C333.243 491.66 330.995 493.984 328.702 496.443C326.409 498.903 324.085 501.483 321.777 504.183C319.468 506.884 317.25 509.585 315.153 512.21C313.056 514.835 311.14 517.431 309.329 519.935C305.738 524.96 302.66 529.592 299.96 533.409C297.259 537.226 294.98 540.244 293.336 542.28C291.691 544.317 290.726 545.373 290.726 545.373L291.39 544.559L293.276 542.22C294.89 540.168 297.153 537.151 299.809 533.303C302.464 529.456 305.542 524.824 309.118 519.724C310.913 517.219 312.86 514.624 314.927 511.969C316.994 509.313 319.212 506.628 321.55 503.942C329.532 494.75 338.062 486.048 347.094 477.885C353.989 471.639 358.44 467.957 358.44 467.957Z" fill="white"/>
<path d="M202.295 495.734C202.295 495.734 202.114 496.278 201.752 497.243C201.39 498.209 200.892 499.627 200.334 501.392C199.776 503.158 199.187 505.27 198.629 507.654C198.373 508.846 198.086 510.098 197.875 511.411C197.663 512.723 197.437 514.081 197.241 515.485C197.045 516.888 196.924 518.246 196.834 519.573C196.743 520.901 196.683 522.184 196.622 523.406C196.622 525.85 196.622 528.053 196.698 529.893C196.773 531.734 196.924 533.228 197.03 534.269C197.135 535.31 197.196 535.868 197.196 535.868C197.196 535.868 197.09 535.295 196.954 534.269C196.818 533.243 196.653 531.749 196.532 529.909C196.411 528.068 196.336 525.85 196.381 523.391C196.381 522.168 196.381 520.886 196.562 519.558C196.743 518.231 196.803 516.858 196.954 515.439C197.105 514.021 197.347 512.678 197.603 511.365C197.86 510.053 198.116 508.801 198.388 507.593C198.961 505.21 199.58 503.067 200.168 501.332C200.756 499.597 201.269 498.179 201.677 497.213L202.295 495.734Z" fill="white"/>
<path d="M222.453 518.758C222.453 518.758 222.196 519.166 221.714 519.875L219.662 522.892L212.797 532.79L205.856 542.627L203.729 545.645L202.929 546.731C202.929 546.731 203.171 546.324 203.653 545.6L205.72 542.582L212.57 532.684L219.526 522.847L221.653 519.83C222.151 519.135 222.453 518.758 222.453 518.758Z" fill="white"/>
<path d="M40.7036 407.455C40.7036 407.455 40.7036 407.922 40.4773 408.813C40.251 409.703 40.085 411.03 39.8285 412.735C39.572 414.44 39.225 416.522 38.9383 418.952C38.7573 420.159 38.6215 421.456 38.4857 422.844C38.3499 424.232 38.1839 425.681 38.0783 427.22C37.9727 428.759 37.852 430.373 37.7766 432.048C37.7011 433.723 37.6559 435.473 37.6257 437.283C37.5955 439.094 37.6257 440.98 37.6257 442.896C37.6257 444.812 37.7615 446.819 37.9576 448.841C38.2895 453.106 38.8739 457.348 39.7078 461.545C40.5719 466.036 41.762 470.459 43.2686 474.777C44.7669 479.089 46.6033 483.277 48.7606 487.3C50.7347 491.075 52.9261 494.732 55.3238 498.254C57.6323 501.603 59.8502 504.727 62.219 507.533C64.5878 510.339 66.7454 512.919 68.7521 515.213C72.8862 519.739 76.3866 523.345 78.8308 525.774L81.6674 528.565L82.6481 529.546C82.6481 529.546 81.2449 528.233 78.7856 525.834C76.3262 523.436 72.7504 519.89 68.6163 515.273C66.5492 512.98 64.3162 510.445 62.038 507.623C59.7597 504.802 57.5116 501.694 55.1126 498.344C52.6996 494.819 50.493 491.156 48.5041 487.375C46.3527 483.325 44.5214 479.113 43.0272 474.777C41.5175 470.443 40.3224 466.006 39.4513 461.5C38.6535 457.305 38.0943 453.069 37.7766 448.811C37.5804 446.774 37.5653 444.782 37.4597 442.775C37.3541 440.769 37.4597 438.958 37.4597 437.148C37.4597 435.337 37.4597 433.587 37.6408 431.897C37.8218 430.207 37.8369 428.608 37.9727 427.069C38.1085 425.53 38.2443 424.051 38.3952 422.693C38.5461 421.336 38.6969 420.008 38.878 418.801C39.1797 416.357 39.5419 414.274 39.8134 412.585C40.085 410.895 40.3566 409.567 40.5226 408.677C40.6885 407.787 40.7036 407.455 40.7036 407.455Z" fill="white"/>
<path d="M8.65692 471.171L9.00394 472.333C9.24535 473.087 9.54711 474.219 10.045 475.652C10.5429 477.085 11.1313 478.836 11.8857 480.842C12.6401 482.849 13.6208 485.097 14.7675 487.541C17.4656 493.266 20.6667 498.739 24.3333 503.897C28.8389 510.196 34.0309 515.975 39.8135 521.127C50.3924 530.469 62.7432 537.586 76.1301 542.054C80.1639 543.446 84.3076 544.495 88.5173 545.192C90.0261 545.419 91.1879 545.524 91.9725 545.585L93.1946 545.66C91.6282 545.641 90.0651 545.509 88.5173 545.268C87.0085 545.056 85.1829 544.725 83.1008 544.227C81.0186 543.729 78.5744 543.035 76.0849 542.22C70.0553 540.237 64.2176 537.712 58.6432 534.676C51.8343 530.931 45.4545 526.453 39.6173 521.323C29.0426 511.919 20.5214 500.434 14.5865 487.587C13.4398 485.127 12.5345 482.864 11.765 480.857C10.9955 478.851 10.4071 477.1 9.95448 475.652C9.04921 472.8 8.65692 471.171 8.65692 471.171Z" fill="white"/>
<path d="M81.954 470.221C81.954 470.221 81.954 471.412 82.1049 473.57C82.1274 474.882 82.218 476.191 82.3765 477.493C82.5425 479.002 82.6481 480.767 83.0102 482.668C83.1611 483.619 83.327 484.614 83.493 485.686C83.659 486.757 83.9607 487.783 84.1871 488.899C84.6397 491.132 85.3639 493.426 86.058 495.9C86.4201 497.122 86.918 498.329 87.3404 499.597L88.0194 501.498L88.8191 503.399C89.845 505.994 91.1426 508.559 92.4401 511.199C93.7377 513.84 95.2767 516.284 96.8307 518.577L97.9623 520.312C98.3546 520.871 98.762 521.414 99.1543 521.957C99.9539 523.013 100.663 524.1 101.493 525.095C103.077 527.027 104.586 528.928 106.095 530.557C106.879 531.372 107.604 532.202 108.358 532.941L110.621 535.023C111.994 536.396 113.367 537.467 114.529 538.463C115.132 538.961 115.66 539.429 116.173 539.836L117.682 540.908L120.368 542.914C120.368 542.914 119.387 542.235 117.637 540.968C116.556 540.222 115.513 539.421 114.514 538.569C113.337 537.573 111.949 536.517 110.561 535.159L108.343 533.077C107.588 532.353 106.834 531.568 106.065 530.708C104.465 529.079 102.941 527.178 101.312 525.216C100.497 524.235 99.8031 523.149 98.9431 522.078L97.6757 520.388L96.5441 518.653C95.0353 516.359 93.5265 513.825 92.1233 511.26C90.7201 508.695 89.5131 506.039 88.5022 503.444L87.7025 501.528L87.0236 499.612C86.6011 498.344 86.1183 497.122 85.7562 495.9C85.0621 493.426 84.353 491.102 83.9155 488.869C83.6892 487.753 83.4176 486.697 83.2365 485.64C83.0555 484.584 82.9197 483.604 82.7688 482.623C82.4218 480.707 82.3463 478.956 82.1804 477.433C82.1804 476.663 82.0295 475.924 81.9993 475.305V473.495C81.954 471.413 81.954 470.221 81.954 470.221Z" fill="white"/>
<path d="M185.699 502.991C185.699 502.991 185.337 503.595 184.643 504.651C183.948 505.707 182.938 507.246 181.731 509.177C179.317 513.01 176.103 518.381 172.844 524.476C169.585 530.572 166.914 536.245 165.073 540.379C164.168 542.461 163.429 544.136 162.946 545.313C162.463 546.49 162.162 547.108 162.162 547.108C162.162 547.108 163.127 544.483 164.908 540.319C166.688 536.154 169.328 530.451 172.587 524.341C175.846 518.23 179.105 512.889 181.64 509.087C182.877 507.186 183.903 505.662 184.658 504.56L185.699 502.991Z" fill="white"/>
<path d="M117.109 466.493C117.109 466.493 117.109 467.625 117.003 469.677C117.003 470.703 116.898 471.97 116.898 473.434C116.898 474.897 116.898 476.557 116.898 478.398C116.898 482.064 117.169 486.455 117.607 491.298C117.879 493.712 118.105 496.247 118.527 498.842C118.95 501.437 119.372 504.168 119.87 506.929C120.368 509.69 121.002 512.361 121.651 514.926C122.299 517.491 122.993 519.935 123.657 522.289C125.06 526.936 126.494 531.085 127.837 534.51C128.47 536.23 129.134 537.754 129.692 539.112C130.251 540.47 130.749 541.616 131.201 542.552C132.046 544.423 132.499 545.464 132.499 545.464L131.111 542.582C130.673 541.661 130.145 540.515 129.602 539.157C129.059 537.799 128.35 536.29 127.701 534.631C126.328 531.221 124.879 527.087 123.446 522.424C122.782 520.071 122.028 517.626 121.424 515.046C120.821 512.466 120.202 509.796 119.629 507.05C119.055 504.304 118.633 501.573 118.286 498.948C117.939 496.322 117.652 493.788 117.396 491.404C116.973 486.56 116.762 482.17 116.762 478.488C116.762 476.648 116.762 474.973 116.762 473.524C116.762 472.076 116.762 470.794 116.898 469.768C117.019 467.58 117.109 466.493 117.109 466.493Z" fill="white"/>
<path d="M221.729 106.058C221.729 106.058 221.367 106.436 220.673 107.069L217.745 109.74L208.195 118.642L198.735 127.695L195.883 130.425C195.219 131.074 194.827 131.421 194.827 131.421C194.827 131.421 195.174 131.044 195.838 130.38L198.629 127.574C200.998 125.22 204.317 122.006 208.014 118.521C211.71 115.036 215.135 111.913 217.625 109.68L220.642 107.069C221.321 106.39 221.729 106.058 221.729 106.058Z" fill="#EDEBFF"/>
<path d="M225.833 107.522L224.973 108.382L222.574 110.645L214.637 118.083L206.641 125.446L204.166 127.664L203.246 128.449L204.106 127.604L206.49 125.325L214.426 117.902L222.423 110.539L224.867 108.321L225.833 107.522Z" fill="#EDEBFF"/>
<path d="M222.875 116.439L222.061 117.254L219.782 119.411L212.238 126.518L204.619 133.549L202.28 135.661C201.737 136.159 201.405 136.43 201.405 136.43C201.405 136.43 201.692 136.129 202.235 135.616L204.498 133.443L212.042 126.336L219.662 119.306L221.985 117.193C222.558 116.695 222.875 116.439 222.875 116.439Z" fill="#EDEBFF"/>
<path d="M227.175 118.099C227.175 118.099 226.949 118.325 226.512 118.702L224.656 120.211C223.147 121.554 220.944 123.41 218.621 125.492L213.083 130.486C212.359 131.15 211.756 131.708 211.288 132.115C210.82 132.523 210.473 132.794 210.549 132.96C210.56 132.976 210.574 132.989 210.592 132.997C210.609 133.006 210.627 133.011 210.647 133.011C210.666 133.011 210.685 133.006 210.702 132.997C210.719 132.989 210.734 132.976 210.745 132.96C210.733 132.982 210.716 133.001 210.695 133.014C210.673 133.027 210.649 133.034 210.624 133.034C210.599 133.034 210.575 133.027 210.553 133.014C210.532 133.001 210.515 132.982 210.503 132.96C210.503 132.96 210.503 132.719 210.669 132.598L211.212 132.055L212.963 130.365C214.471 129.007 216.312 127.227 218.455 125.326C220.597 123.425 222.981 121.403 224.58 120.105L226.466 118.597C226.904 118.28 227.175 118.099 227.175 118.099Z" fill="#EDEBFF"/>
<path d="M211.243 109.573L210.413 110.373L208.104 112.5C206.158 114.311 203.487 116.831 200.56 119.622C197.633 122.413 195.023 125.008 193.137 126.879L190.919 129.097C190.391 129.61 190.074 129.882 190.074 129.882L190.859 129.037L193.031 126.759C194.872 124.857 197.467 122.232 200.379 119.441C203.291 116.65 206.022 114.16 207.923 112.395L210.277 110.313C210.911 109.83 211.243 109.573 211.243 109.573Z" fill="#EDEBFF"/>
<path d="M211.212 105.756C211.212 105.756 210.971 105.983 210.503 106.36L208.512 107.869C206.837 109.212 204.513 111.067 201.994 113.15C199.474 115.232 197.211 117.163 195.581 118.551L193.65 120.211L192.926 120.799C192.926 120.799 193.152 120.558 193.59 120.15L195.476 118.445C197.075 116.937 199.308 115.066 201.843 112.968C204.378 110.871 206.701 109.046 208.421 107.748L210.458 106.239L211.212 105.756Z" fill="#EDEBFF"/>
<path d="M206.641 102.844C206.641 102.844 206.354 103.101 205.796 103.538L203.502 105.47C201.556 107.069 198.976 109.302 196.064 111.867C193.152 114.432 190.723 116.846 188.943 118.611L186.83 120.708L186.046 121.463L186.77 120.648L188.822 118.49C190.572 116.68 193.046 114.251 195.898 111.686C198.75 109.121 201.42 106.903 203.442 105.334L205.796 103.523C206.309 103.055 206.641 102.844 206.641 102.844Z" fill="#EDEBFF"/>
<path d="M195.898 106.979C195.898 106.979 195.792 107.099 195.596 107.295L194.691 108.095L191.673 110.66L188.656 113.18L187.705 113.919C187.479 114.1 187.358 114.191 187.343 114.176C187.439 114.061 187.545 113.954 187.66 113.859L188.55 113.059L191.568 110.494L194.585 107.974L195.521 107.235L195.898 106.979Z" fill="#EDEBFF"/>
<path d="M230.797 120.06L230.238 120.588L228.73 121.976C227.417 123.138 225.621 124.782 223.675 126.623C221.729 128.464 219.994 130.169 218.741 131.421L217.233 132.93C216.886 133.277 216.674 133.458 216.674 133.458C216.674 133.458 216.84 133.232 217.172 132.869L218.575 131.361C219.782 130.078 221.502 128.343 223.449 126.502C225.395 124.662 227.236 123.047 228.579 121.976L230.193 120.648L230.797 120.06Z" fill="#EDEBFF"/>
<path d="M278.791 105.621C278.791 105.621 279.199 105.938 279.908 106.556L282.925 109.182C285.415 111.4 288.825 114.508 292.536 118.008C296.248 121.508 299.552 124.737 301.921 127.061L304.712 129.867C305.376 130.531 305.723 130.908 305.723 130.908C305.723 130.908 305.331 130.576 304.667 129.928L301.815 127.182L292.355 118.129L282.805 109.227L279.908 106.541L278.791 105.621Z" fill="#EDEBFF"/>
<path d="M274.702 107.084C274.702 107.084 275.034 107.356 275.608 107.869L278.052 110.087L286.048 117.449L293.985 124.888L296.369 127.151L297.229 128.011L296.308 127.211L293.879 124.993L285.882 117.63L277.946 110.207L275.547 107.929C274.989 107.401 274.702 107.084 274.702 107.084Z" fill="#EDEBFF"/>
<path d="M277.645 116.031C277.645 116.031 277.962 116.288 278.52 116.786L280.843 118.898L288.463 125.944L296.007 133.035L298.27 135.208C298.813 135.721 299.1 136.023 299.1 136.023C299.1 136.023 298.783 135.766 298.225 135.268L295.886 133.156L288.267 126.125L280.723 119.019L278.444 116.846L277.645 116.031Z" fill="#EDEBFF"/>
<path d="M273.344 117.646C273.344 117.646 273.616 117.827 274.069 118.189L275.955 119.697C277.554 121.01 279.727 122.836 282.08 124.918C284.434 127 286.516 128.946 288.01 130.365L289.745 132.07C289.941 132.236 290.183 132.507 289.956 132.628C289.73 132.749 289.79 132.477 289.82 132.507C289.851 132.537 289.82 132.628 289.956 132.598C290.092 132.567 289.956 132.296 289.7 132.13L287.904 130.47C286.395 129.082 284.283 127.166 281.869 125.099C279.455 123.032 277.343 121.146 275.834 119.818L273.978 118.234C273.571 117.872 273.344 117.646 273.344 117.646Z" fill="#EDEBFF"/>
<path d="M289.277 109.121C289.277 109.121 289.609 109.378 290.168 109.86L292.521 111.942C294.498 113.723 297.214 116.182 300.141 119.004C303.068 121.825 305.648 124.405 307.488 126.306L309.661 128.584C310.174 129.128 310.446 129.444 310.446 129.444C310.446 129.444 310.129 129.173 309.601 128.645L307.383 126.427C305.497 124.556 302.856 121.991 299.96 119.185C297.063 116.378 294.362 113.859 292.416 112.063L290.168 109.996C289.564 109.423 289.277 109.121 289.277 109.121Z" fill="#EDEBFF"/>
<path d="M289.308 105.319L290.062 105.847L292.099 107.356C293.819 108.653 296.158 110.479 298.677 112.561C301.197 114.643 303.445 116.605 305.044 118.038C305.844 118.762 306.478 119.351 306.93 119.743L307.594 120.407L306.885 119.803L304.939 118.159C303.309 116.755 301.061 114.839 298.526 112.757C295.992 110.675 293.698 108.804 292.008 107.461C291.179 106.797 290.5 106.254 290.017 105.953C289.534 105.651 289.308 105.319 289.308 105.319Z" fill="#EDEBFF"/>
<path d="M293.879 102.452C293.879 102.452 294.211 102.664 294.769 103.086L297.123 104.912C299.1 106.42 301.785 108.684 304.667 111.249C307.549 113.814 309.993 116.258 311.743 118.053C312.603 118.974 313.252 119.713 313.795 120.211L314.519 121.026C314.519 121.026 314.233 120.769 313.735 120.271L311.623 118.174C309.842 116.409 307.338 114.01 304.501 111.445C301.665 108.88 299.009 106.632 297.063 105.032L294.694 103.101L293.879 102.452Z" fill="#EDEBFF"/>
<path d="M304.622 106.466C304.753 106.535 304.875 106.621 304.984 106.722L305.919 107.462L308.937 109.966L311.955 112.546L312.845 113.346C312.957 113.44 313.063 113.54 313.162 113.648C313.162 113.648 313.026 113.648 312.8 113.406L311.849 112.667L308.831 110.147L305.814 107.567L304.909 106.768C304.804 106.676 304.708 106.575 304.622 106.466Z" fill="#EDEBFF"/>
<path d="M269.723 119.622L270.342 120.075L271.956 121.403C273.299 122.549 275.125 124.149 277.086 125.929C279.048 127.709 280.753 129.52 281.96 130.802L283.363 132.311L283.861 132.9C283.861 132.9 283.65 132.719 283.303 132.371L281.794 130.863C280.541 129.625 278.776 127.845 276.86 126.065C274.944 124.284 273.118 122.595 271.806 121.418L270.297 120.045C269.92 119.818 269.723 119.622 269.723 119.622Z" fill="#EDEBFF"/>
<path d="M242.806 449.671C242.806 449.671 242.806 449.806 242.625 450.018L242.067 450.908L240.241 453.925L238.476 456.943L237.948 457.863C237.893 457.979 237.822 458.085 237.737 458.18C237.772 458.054 237.823 457.932 237.888 457.818L238.34 456.868C238.748 456.068 239.336 454.982 240.03 453.85C240.724 452.718 241.418 451.647 241.931 450.923L242.565 450.063L242.806 449.671Z" fill="#9D93E2"/>
<path d="M243.651 451.738C243.529 452.026 243.383 452.304 243.214 452.568L242.143 454.544L241.102 456.536C240.976 456.824 240.819 457.097 240.634 457.351C240.719 457.05 240.83 456.757 240.966 456.476C241.192 455.947 241.524 455.208 241.931 454.439C242.339 453.669 242.776 452.93 243.093 452.492C243.245 452.217 243.433 451.964 243.651 451.738Z" fill="#9D93E2"/>
<path d="M241.464 447.74C241.341 448.072 241.184 448.39 240.996 448.69C240.679 449.248 240.257 450.033 239.744 450.863C239.231 451.693 238.778 452.462 238.431 453.005C238.084 453.548 237.858 453.88 237.843 453.88C237.96 453.551 238.117 453.236 238.31 452.945C238.612 452.372 239.05 451.602 239.548 450.757C240.045 449.912 240.528 449.143 240.875 448.6C241.043 448.294 241.24 448.006 241.464 447.74Z" fill="#9D93E2"/>
<path d="M258.347 450.621C258.347 450.621 258.453 450.712 258.604 450.908L259.222 451.768C259.735 452.492 260.429 453.518 261.123 454.695C261.817 455.872 262.406 456.943 262.813 457.712L263.281 458.663C263.347 458.775 263.392 458.897 263.417 459.025L263.205 458.708L262.677 457.788L260.912 454.77L259.086 451.753L258.483 450.983C258.426 450.867 258.38 450.746 258.347 450.621Z" fill="#9D93E2"/>
<path d="M257.517 452.673C257.73 452.904 257.917 453.157 258.075 453.428C258.392 453.911 258.8 454.59 259.222 455.374C259.645 456.159 259.976 456.883 260.203 457.411C260.345 457.688 260.451 457.982 260.52 458.286C260.337 458.034 260.185 457.76 260.067 457.471C259.795 456.958 259.418 456.264 259.011 455.48L257.94 453.503C257.763 453.246 257.621 452.967 257.517 452.673Z" fill="#9D93E2"/>
<path d="M259.69 448.69C259.92 448.95 260.122 449.233 260.293 449.535C260.64 450.093 261.108 450.848 261.606 451.693C262.104 452.538 262.541 453.307 262.858 453.88C263.037 454.18 263.193 454.493 263.326 454.816C263.098 454.549 262.896 454.261 262.723 453.956C262.376 453.413 261.908 452.658 261.41 451.813C260.912 450.968 260.474 450.184 260.158 449.626C259.983 449.324 259.827 449.011 259.69 448.69Z" fill="#9D93E2"/>
<path d="M126.66 247.04L136.618 254.025C137.33 254.526 138.17 254.816 139.04 254.862C139.91 254.907 140.775 254.706 141.536 254.282L149.895 249.589C154.852 246.823 160.349 245.166 166.009 244.731C178.804 243.796 202.039 243.479 215.105 251.807C215.559 252.091 216.103 252.196 216.63 252.101C217.157 252.006 217.63 251.719 217.957 251.294V251.294C218.27 250.905 218.441 250.421 218.441 249.921C218.441 249.422 218.27 248.937 217.957 248.548C214.381 244.278 201.149 231.801 166.658 229.07C154.383 227.98 142.124 231.314 132.091 238.47C129.97 239.98 128.026 241.727 126.298 243.675C126.089 243.915 125.933 244.195 125.837 244.498C125.742 244.801 125.711 245.12 125.745 245.436C125.779 245.752 125.878 246.058 126.035 246.333C126.192 246.609 126.405 246.85 126.66 247.04V247.04Z" stroke="black" stroke-width="1.50879" stroke-linecap="round" stroke-linejoin="round"/>
<path d="M144.297 260.468C150.598 264.404 157.73 266.816 165.127 267.513C172.524 268.21 179.981 267.172 186.906 264.481C211.499 255.428 219.586 260.905 219.586 260.905C219.586 260.905 171.576 301.929 144.297 260.468Z" stroke="black" stroke-width="1.50879" stroke-linecap="round" stroke-linejoin="round"/>
<path d="M178.124 378.259C182.663 376.396 186.836 373.745 190.451 370.429C208.195 354.39 216.991 357 216.991 357C212.787 364.959 207.297 372.168 200.741 378.335" stroke="black" stroke-width="1.50879" stroke-linecap="round" stroke-linejoin="round"/>
<path d="M136.738 350.437C136.738 350.437 158.948 359.279 184.28 344.99C209.613 330.702 219.511 334.293 219.511 334.293C219.511 334.293 174.368 385.185 136.738 350.437Z" stroke="black" stroke-width="1.50879" stroke-linecap="round" stroke-linejoin="round"/>
<path d="M145.867 298.595C145.867 298.595 188.49 325.059 218.424 279.282C218.424 279.282 200.319 291.202 183.994 290.915C167.669 290.628 145.867 298.595 145.867 298.595Z" stroke="black" stroke-width="1.50879" stroke-linecap="round" stroke-linejoin="round"/>
<path d="M140.39 329.193C140.296 328.898 140.265 328.587 140.297 328.279C140.33 327.971 140.426 327.673 140.579 327.404C140.732 327.135 140.938 326.901 141.186 326.715C141.434 326.53 141.718 326.397 142.019 326.327C151.796 323.943 197.995 312.748 217.459 310.922C217.842 310.887 218.228 310.943 218.585 311.088C218.942 311.232 219.26 311.46 219.511 311.752V311.752C219.78 312.061 219.968 312.434 220.056 312.835C220.143 313.236 220.129 313.653 220.013 314.047C219.897 314.44 219.684 314.799 219.393 315.089C219.102 315.378 218.743 315.59 218.349 315.705C209.296 318.27 186.091 325.482 172.346 334.972C157.122 345.473 142.668 335.666 140.39 329.193Z" stroke="black" stroke-width="1.50879" stroke-linecap="round" stroke-linejoin="round"/>
<path d="M92.591 364.092C92.591 364.092 68.6616 332.03 119.674 270.26C119.674 270.26 132.272 255.323 141.219 266.594C147.541 274.575 127.037 307.15 113.08 327.625C106.004 338.005 100.467 342.471 92.6061 364.092H92.591Z" stroke="black" stroke-width="1.50879" stroke-linecap="round" stroke-linejoin="round"/>
<path d="M116.656 449.022C113.02 447.226 107.317 441.04 98.943 423.614C81.8182 388.067 90.5994 366.28 90.5994 366.28C90.5994 366.28 94.3563 389.349 108.811 406.217C111.962 409.893 114.601 413.979 116.656 418.363" stroke="black" stroke-width="1.50879" stroke-linecap="round" stroke-linejoin="round"/>
<path d="M240.468 235.392C240.468 235.392 226.074 242.197 225.908 249.605C225.742 257.013 234.01 263.425 250.29 260.166" stroke="black" stroke-width="1.50879" stroke-linecap="round" stroke-linejoin="round"/>
<path d="M234.342 259.91C234.342 259.91 226.179 266.066 227.824 271.331C228.82 274.53 231.747 277.004 236.771 277.864" stroke="black" stroke-width="1.50879" stroke-linecap="round" stroke-linejoin="round"/>
<path d="M236.575 363.322C236.575 363.322 228.413 369.478 230.057 374.744C230.478 376.089 231.243 377.3 232.275 378.259" stroke="black" stroke-width="1.50879" stroke-linecap="round" stroke-linejoin="round"/>
<path d="M233.935 277.11C233.935 277.11 226.18 283.024 225.908 289.376C225.727 293.435 234.252 293.676 240.468 293.314" stroke="black" stroke-width="1.50879" stroke-linecap="round" stroke-linejoin="round"/>
<path d="M234.523 293.435C234.523 293.435 224.867 302.488 231.672 308.252C238.476 314.015 248.012 310.017 248.012 310.017" stroke="black" stroke-width="1.50879" stroke-linecap="round" stroke-linejoin="round"/>
<path d="M235.489 310.907C235.489 310.907 227.311 317.063 228.956 322.329C230.6 327.595 236.5 331.382 249.385 328.832" stroke="black" stroke-width="1.50879" stroke-linecap="round" stroke-linejoin="round"/>
<path d="M237.194 329.193C237.194 329.193 229.424 335.108 229.152 341.46C228.88 347.812 250.064 344.794 250.064 344.794" stroke="black" stroke-width="1.50879" stroke-linecap="round" stroke-linejoin="round"/>
<path d="M235.595 345.519C235.595 345.519 225.938 354.572 232.743 360.335C239.548 366.099 249.098 362.101 249.098 362.101" stroke="black" stroke-width="1.50879" stroke-linecap="round" stroke-linejoin="round"/>
<path d="M375.233 247.296L365.26 254.282C364.553 254.789 363.714 255.082 362.844 255.125C361.974 255.168 361.111 254.959 360.357 254.523L351.983 249.846C347.039 247.062 341.542 245.404 335.884 244.988C323.089 244.052 299.854 243.735 286.788 252.064C286.332 252.341 285.79 252.441 285.265 252.347C284.74 252.253 284.267 251.969 283.936 251.551V251.551C283.621 251.159 283.45 250.672 283.45 250.17C283.45 249.668 283.621 249.181 283.936 248.79C287.512 244.535 300.744 232.057 335.235 229.326C347.51 228.237 359.769 231.571 369.802 238.726C371.927 240.232 373.871 241.979 375.595 243.931C375.804 244.171 375.96 244.451 376.055 244.754C376.151 245.057 376.182 245.377 376.148 245.693C376.114 246.008 376.015 246.314 375.858 246.59C375.701 246.866 375.488 247.106 375.233 247.296V247.296Z" stroke="black" stroke-width="1.50879" stroke-linecap="round" stroke-linejoin="round"/>
<path d="M357.595 260.785C351.292 264.722 344.157 267.134 336.757 267.828C329.357 268.522 321.898 267.48 314.972 264.783C290.394 255.731 282.307 261.223 282.307 261.223C282.307 261.223 330.316 302.247 357.595 260.785Z" stroke="black" stroke-width="1.50879" stroke-linecap="round" stroke-linejoin="round"/>
<path d="M323.195 378.335C318.882 376.489 314.905 373.94 311.426 370.791C293.683 354.737 284.902 357.363 284.902 357.363C289.017 365.149 294.361 372.221 300.729 378.305" stroke="black" stroke-width="1.50879" stroke-linecap="round" stroke-linejoin="round"/>
<path d="M365.154 350.739C365.154 350.739 342.975 359.595 317.612 345.368C292.25 331.14 282.382 334.67 282.382 334.67C282.382 334.67 327.525 385.501 365.154 350.739Z" stroke="black" stroke-width="1.50879" stroke-linecap="round" stroke-linejoin="round"/>
<path d="M356.011 298.882C356.011 298.882 313.403 325.346 283.469 279.554C283.469 279.554 301.574 291.489 317.899 291.202C334.224 290.915 356.011 298.882 356.011 298.882Z" stroke="black" stroke-width="1.50879" stroke-linecap="round" stroke-linejoin="round"/>
<path d="M361.503 329.495C361.597 329.201 361.628 328.891 361.595 328.584C361.563 328.277 361.467 327.98 361.314 327.712C361.16 327.444 360.953 327.211 360.706 327.027C360.458 326.843 360.175 326.712 359.874 326.644C350.082 324.245 303.898 313.064 284.434 311.239C284.051 311.203 283.664 311.26 283.307 311.405C282.951 311.549 282.633 311.777 282.382 312.069V312.069C282.113 312.378 281.925 312.751 281.837 313.152C281.75 313.553 281.764 313.969 281.88 314.363C281.996 314.757 282.209 315.116 282.5 315.406C282.791 315.695 283.15 315.907 283.544 316.022C292.597 318.587 315.802 325.799 329.547 335.289C344.756 345.79 359.225 335.968 361.503 329.495Z" stroke="black" stroke-width="1.50879" stroke-linecap="round" stroke-linejoin="round"/>
<path d="M409.362 364.409C409.362 364.409 433.292 332.347 382.294 270.577C382.294 270.577 369.696 255.625 360.749 266.911C354.412 274.877 374.931 307.467 388.888 327.941C395.964 338.322 401.501 342.788 409.362 364.409Z" stroke="black" stroke-width="1.50879" stroke-linecap="round" stroke-linejoin="round"/>
<path d="M385.372 449.293C389.009 447.453 394.682 441.221 402.995 423.931C420.12 388.383 411.339 366.596 411.339 366.596C411.339 366.596 407.582 389.666 393.128 406.534C389.976 410.21 387.337 414.296 385.282 418.68" stroke="black" stroke-width="1.50879" stroke-linecap="round" stroke-linejoin="round"/>
<path d="M262.572 236.116C262.572 236.116 275.819 242.513 275.985 249.922C276.106 255.142 272.017 259.88 263.915 261.056" stroke="black" stroke-width="1.50879" stroke-linecap="round" stroke-linejoin="round"/>
<path d="M267.536 260.227C267.536 260.227 275.698 266.382 274.054 271.648C272.409 276.914 265.574 280.203 252.734 277.578" stroke="black" stroke-width="1.50879" stroke-linecap="round" stroke-linejoin="round"/>
<path d="M265.318 363.639C265.318 363.639 273.48 369.795 271.836 375.061C271.448 376.294 270.77 377.417 269.859 378.335" stroke="black" stroke-width="1.50879" stroke-linecap="round" stroke-linejoin="round"/>
<path d="M267.958 277.472C267.958 277.472 275.713 283.372 275.985 289.739C276.256 296.106 255.073 293.073 255.073 293.073" stroke="black" stroke-width="1.50879" stroke-linecap="round" stroke-linejoin="round"/>
<path d="M267.37 293.752C267.37 293.752 277.026 302.805 270.221 308.569C268.546 309.998 266.529 310.97 264.367 311.39" stroke="black" stroke-width="1.50879" stroke-linecap="round" stroke-linejoin="round"/>
<path d="M266.404 311.224C266.404 311.224 274.582 317.38 272.922 322.646C271.579 326.961 266.751 329.948 258.015 329.435" stroke="black" stroke-width="1.50879" stroke-linecap="round" stroke-linejoin="round"/>
<path d="M264.699 329.51C264.699 329.51 272.454 335.409 272.726 341.777C272.862 344.794 268.2 345.699 263.22 345.82" stroke="black" stroke-width="1.50879" stroke-linecap="round" stroke-linejoin="round"/>
<path d="M266.283 345.836C266.283 345.836 275.94 354.889 269.15 360.652C267.076 362.382 264.523 363.435 261.832 363.67" stroke="black" stroke-width="1.50879" stroke-linecap="round" stroke-linejoin="round"/>
<path d="M212.646 177.666L210.322 187.503C210.322 187.503 213.596 191.592 220.28 189.63L222.347 180.578" stroke="black" stroke-width="1.50879" stroke-linecap="round" stroke-linejoin="round"/>
<path d="M228.609 207.615L229.816 200.81C229.816 200.81 226.27 196.978 219.737 199.392L218.952 204.084" stroke="black" stroke-width="1.50879" stroke-linecap="round" stroke-linejoin="round"/>
<path d="M276.588 206.378L274.536 199.377C274.536 199.377 277.72 195.228 284.449 197.038L285.958 202.153" stroke="black" stroke-width="1.50879" stroke-linecap="round" stroke-linejoin="round"/>
<path d="M243.395 210.829L244.391 203.119C244.391 203.119 240.679 199.452 234.267 202.168L233.361 208.943" stroke="black" stroke-width="1.50879" stroke-linecap="round" stroke-linejoin="round"/>
<path d="M257.895 211.086L258.106 203.798C258.106 203.798 254.047 200.041 247.891 203.436L247.635 210.889" stroke="black" stroke-width="1.50879" stroke-linecap="round" stroke-linejoin="round"/>
<path d="M272.454 207.932L271.368 200.735C271.368 200.735 266.706 197.717 261.259 202.244L262.466 210.618" stroke="black" stroke-width="1.50879" stroke-linecap="round" stroke-linejoin="round"/>
<path d="M225.123 181.513L224.052 191.109C224.052 191.109 227.809 194.745 234.191 191.954L235.112 183.188" stroke="black" stroke-width="1.50879" stroke-linecap="round" stroke-linejoin="round"/>
<path d="M238.703 183.821L238.34 193.462C238.34 193.462 242.339 196.812 248.51 193.553L248.781 183.912" stroke="black" stroke-width="1.50879" stroke-linecap="round" stroke-linejoin="round"/>
<path d="M252.87 183.927L253.202 192.769C253.202 192.769 257.457 195.786 263.356 192.105L262.964 183.294" stroke="black" stroke-width="1.50879" stroke-linecap="round" stroke-linejoin="round"/>
<path d="M265.242 182.72L266.842 191.018C266.842 191.018 271.504 193.372 276.784 188.816L275.276 180.94" stroke="black" stroke-width="1.50879" stroke-linecap="round" stroke-linejoin="round"/>
<path d="M278.097 180.427L281.613 189.344C281.613 189.344 286.637 190.852 290.982 185.345L287.965 177.892" stroke="black" stroke-width="1.50879" stroke-linecap="round" stroke-linejoin="round"/>
<path d="M218.274 203.797C210.581 200.175 204.286 194.134 200.349 186.597C199.506 185.034 198.272 183.716 196.767 182.772C195.262 181.828 193.539 181.29 191.764 181.211L175.469 180.426L188.475 205.321C189.495 207.238 191.016 208.841 192.876 209.96C194.736 211.078 196.866 211.671 199.036 211.673C202.597 211.673 208.18 213.982 216.599 222.235C218.872 224.482 221.358 226.503 224.022 228.27C232.258 233.852 242.034 236.717 251.98 236.463H252.599C262.545 236.717 272.321 233.852 280.557 228.27C283.22 226.503 285.706 224.482 287.98 222.235C296.399 213.997 301.981 211.673 305.542 211.673C307.713 211.671 309.842 211.078 311.702 209.96C313.563 208.841 315.084 207.238 316.104 205.321L329.11 180.426L311.774 180.803C310.057 180.848 308.379 181.32 306.891 182.176C305.402 183.032 304.151 184.246 303.249 185.707C299.565 191.247 294.932 196.094 289.564 200.025C278.535 206.86 255.028 219.594 218.274 203.797Z" stroke="black" stroke-width="1.50879" stroke-linecap="round" stroke-linejoin="round"/>
<path d="M294.573 174.784C242.957 194.971 206.007 174.467 206.007 174.467L209.432 173.109C209.432 173.109 155.206 190.49 168.453 139.071C169.268 135.982 170.307 132.956 171.561 130.018C173.99 124.3 178.592 111.294 174.7 102.769L171.908 117.012C171.837 117.363 171.662 117.684 171.406 117.934C171.151 118.185 170.827 118.353 170.475 118.418C170.123 118.483 169.76 118.441 169.432 118.298C169.104 118.155 168.826 117.918 168.634 117.616C162.735 108.035 149.548 80.3937 168.755 47.8943C175.999 35.8647 186.087 25.798 198.131 18.5785C210.953 10.7444 225.022 5.16656 239.729 2.08738C243.408 1.34221 247.155 0.978172 250.909 1.00105V1.00105C254.668 0.977456 258.419 1.34149 262.104 2.08738C277.295 5.27092 291.802 11.1198 304.954 19.363C316.181 26.2929 325.632 35.7538 332.55 46.9891C352.556 79.8958 339.173 107.959 333.213 117.631C332.368 119.004 330.196 118.642 329.879 116.665L327.148 102.784C323.301 111.233 327.797 124.088 330.241 129.942C331.532 132.969 332.601 136.085 333.44 139.267C346.551 190.566 292.431 173.169 292.431 173.169L294.573 174.784Z" stroke="black" stroke-width="1.50879" stroke-linecap="round" stroke-linejoin="round"/>
<path d="M187.57 104.142C184.16 112.033 175.846 136.128 198.584 141.454C203.404 142.506 208.399 142.47 213.204 141.349C245.145 134.348 234.418 108.246 230.646 100.822C230.344 100.229 229.874 99.7372 229.294 99.4097C228.714 99.0822 228.051 98.9333 227.387 98.9817L191.357 101.456C190.538 101.509 189.751 101.788 189.082 102.262C188.413 102.736 187.89 103.387 187.57 104.142V104.142Z" stroke="black" stroke-width="1.50879" stroke-miterlimit="10"/>
<path d="M313.856 104.142C317.265 112.033 325.579 136.128 302.841 141.454C298.021 142.506 293.026 142.47 288.221 141.349C256.28 134.348 266.992 108.246 270.779 100.822C271.081 100.229 271.551 99.7372 272.131 99.4097C272.711 99.0822 273.374 98.9333 274.038 98.9817L310.068 101.456C310.887 101.509 311.674 101.788 312.343 102.262C313.012 102.736 313.535 103.387 313.856 104.142V104.142Z" stroke="black" stroke-width="1.50879" stroke-miterlimit="10"/>
<path d="M251.889 119.743C251.889 119.743 247.454 134.71 239.698 144.095C231.943 153.48 235.579 162.034 235.579 162.034C235.579 162.034 240.679 160.526 246.141 165.987C250.124 169.956 258.649 166.802 262.949 164.826C263.902 164.387 264.731 163.719 265.363 162.882C265.995 162.045 266.409 161.064 266.57 160.028C267.175 155.221 266.11 150.352 263.552 146.237C257.804 136.038 253.73 129.445 251.889 119.743Z" stroke="black" stroke-width="1.50879" stroke-miterlimit="10"/>
<path d="M116.656 461.545V386.95C116.654 385.819 116.876 384.697 117.308 383.651C117.74 382.605 118.375 381.655 119.175 380.854C119.976 380.054 120.926 379.419 121.972 378.987C123.018 378.555 124.14 378.333 125.272 378.335H376.667C378.951 378.335 381.143 379.243 382.758 380.859C384.374 382.474 385.282 384.666 385.282 386.95V480.782" stroke="#7C7C7C" stroke-width="1.50879" stroke-miterlimit="10" stroke-linecap="round"/>
<path d="M259.237 474.188V485.595C264.141 489.744 266.057 484.916 266.057 484.916L266.6 463.084C266.6 463.084 284.163 454.529 280.873 436.303C279.531 428.909 274.34 424.081 268.652 420.958C263.221 417.996 257.133 416.444 250.947 416.444C244.76 416.444 238.672 417.996 233.241 420.958C227.553 424.081 222.362 428.909 221.02 436.303C217.746 454.529 235.278 463.053 235.278 463.053L235.836 484.886C235.836 484.886 239.351 490.046 243.289 485.761L243.184 472.71" stroke="black" stroke-width="0.754396" stroke-linecap="round" stroke-linejoin="round"/>
<path d="M243.289 485.791C243.289 485.791 248.555 490.484 250.939 485.791V473.45" stroke="black" stroke-width="0.754396" stroke-linecap="round" stroke-linejoin="round"/>
<path d="M250.939 485.791C250.939 485.791 255.314 490.74 259.237 485.595" stroke="black" stroke-width="0.754396" stroke-linecap="round" stroke-linejoin="round"/>
<path d="M237.013 442.323C236.753 442.273 236.486 442.279 236.229 442.34C235.972 442.401 235.73 442.516 235.521 442.677C235.311 442.838 235.138 443.042 235.013 443.275C234.888 443.507 234.814 443.764 234.795 444.028C234.433 448.901 234.433 464.034 243.018 462.209C253.247 460.021 248.721 449.293 242.595 444.812C240.965 443.54 239.049 442.685 237.013 442.323V442.323Z" stroke="black" stroke-width="0.754396" stroke-miterlimit="10"/>
<path d="M265.046 442.323C265.305 442.276 265.572 442.283 265.828 442.345C266.084 442.407 266.325 442.522 266.533 442.683C266.742 442.844 266.915 443.046 267.041 443.278C267.167 443.51 267.243 443.765 267.264 444.028C267.611 448.901 267.611 464.034 259.026 462.209C248.796 460.021 253.323 449.294 259.448 444.812C261.084 443.539 263.005 442.684 265.046 442.323Z" stroke="black" stroke-width="0.754396" stroke-miterlimit="10"/>
</svg>
